<svg width="339" height="337" viewBox="0 0 239 237" fill="none" xmlns="http://www.w3.org/2000/svg">
<path d="M113.795 109.384H106.491C80.3857 109.384 59.2231 130.546 59.2231 156.651C59.2231 182.757 80.3857 203.919 106.491 203.919H113.795C139.901 203.919 161.063 182.757 161.063 156.651C161.063 130.546 139.901 109.384 113.795 109.384Z" fill="white"/>
<path d="M141.504 109.384C146.687 109.399 151.653 111.465 155.317 115.129C158.982 118.794 161.048 123.76 161.063 128.943V184.357C161.048 189.54 158.982 194.506 155.317 198.171C151.653 201.835 146.687 203.901 141.504 203.916H78.7808C73.5982 203.901 68.6322 201.835 64.9677 198.17C61.3031 194.506 59.2378 189.54 59.2228 184.357V128.939C59.2378 123.756 61.3033 118.79 64.968 115.125C68.6328 111.46 73.599 109.395 78.7818 109.38H141.505L141.504 109.384ZM141.505 106.289H78.7818C75.7577 106.285 72.7641 106.894 69.9817 108.078C64.5564 110.39 60.2356 114.711 57.9237 120.136C56.7389 122.918 56.13 125.912 56.1338 128.936V184.357C56.13 187.381 56.7389 190.375 57.9237 193.157C60.2356 198.582 64.5564 202.903 69.9817 205.215C72.7641 206.399 75.7577 207.008 78.7818 207.004H141.505C144.529 207.008 147.522 206.399 150.305 205.215C155.73 202.903 160.051 198.582 162.363 193.157C163.547 190.375 164.156 187.381 164.152 184.357V128.939C164.156 125.915 163.547 122.922 162.363 120.139C160.051 114.714 155.73 110.393 150.305 108.081C147.522 106.896 144.529 106.288 141.505 106.292V106.289Z" fill="black"/>
<path d="M159.661 169.653C149.895 170.798 140.161 171.079 140.161 171.079C140.161 171.079 135.204 146.361 133.83 126.979C132.817 112.618 133.769 101.189 140.161 104.917C143.102 106.632 146.488 109.862 150.019 113.96C163.264 129.334 178.481 156.94 179.319 162.668C179.855 166.351 169.744 168.464 159.661 169.653Z" fill="white"/>
<path d="M138.855 172.724L138.588 171.395C138.558 171.244 135.527 156.055 133.565 140.329C132.529 132.787 131.968 125.188 131.883 117.576C131.939 109.619 133.094 105.107 135.519 103.376C136.583 102.616 138.394 102.025 140.974 103.53C149.474 108.49 160.268 124.292 165.943 133.27C169.729 139.259 173.353 145.553 176.149 150.995C178.118 154.829 180.543 159.925 180.91 162.434C180.983 162.964 180.939 163.503 180.782 164.014C180.625 164.525 180.358 164.996 180 165.393C178.634 167.02 175.8 168.293 171.067 169.399C166.699 170.354 162.278 171.046 157.827 171.473C148.822 172.43 140.296 172.683 140.211 172.686L138.855 172.724ZM137.949 105.81C137.747 105.803 137.548 105.866 137.387 105.989C136.339 106.738 133.195 111.397 136.752 139.915C138.363 152.83 140.701 165.386 141.478 169.423C144.219 169.312 150.726 168.996 157.504 168.275C173.241 166.601 176.756 164.256 177.537 163.326C177.753 163.069 177.737 162.949 177.728 162.899C177.271 159.776 171.335 147.816 163.228 134.987C153.836 120.131 145.135 109.677 139.356 106.305C138.938 106.021 138.453 105.85 137.949 105.81Z" fill="black"/>
<path d="M90.4689 104.004L88.4919 118.956L87.3669 127.456L84.9669 145.606C81.3214 147.881 77.3977 149.677 73.2928 150.949C70.2504 151.935 67.1318 152.668 63.9689 153.142C57.5588 154.116 51.0272 153.95 44.6749 152.652C26.4329 148.916 15.4858 135.366 10.7458 128.552C1.58684 115.404 0.176872 111.852 2.72387 106.313C4.66787 102.071 7.99884 101.296 7.99884 101.296C7.99884 101.296 7.83388 97.9049 10.5179 96.6959C18.5599 93.0849 28.9178 102.73 28.9178 102.73C28.9178 102.73 29.3039 92.3569 34.8549 94.7519C38.6789 96.4029 39.5469 107.695 39.5469 107.695C39.5469 107.695 44.6809 114.295 52.8359 115.167C57.0979 115.625 62.9948 114.388 68.8528 112.592C68.9208 112.572 68.9888 112.552 69.0528 112.528C72.1739 111.564 75.2758 110.447 78.1158 109.342C79.3888 108.848 80.6109 108.354 81.7559 107.88C86.8819 105.764 90.4689 104.004 90.4689 104.004Z" fill="white"/>
<g opacity="0.35">
<g opacity="0.35">
<g opacity="0.35">
<g opacity="0.35">
<path opacity="0.35" d="M10.7468 128.554C15.4908 135.365 26.4358 148.917 44.6768 152.654C54.2041 154.57 64.0654 153.983 73.2978 150.949C77.4029 149.679 81.3264 147.883 84.9708 145.607L85.2918 131.285C85.2918 131.285 80.3238 126.498 75.6978 128.45C70.1388 130.795 71.9198 138.767 63.9808 140.984C41.9088 147.148 23.9808 135.884 18.2078 130.943C10.2078 124.085 8.11579 119.766 6.98879 117.984C5.00571 115.082 3.28365 112.009 1.8428 108.803C0.808796 113.189 3.01679 117.453 10.7468 128.554Z" fill="black"/>
</g>
</g>
</g>
</g>
<path d="M55.6839 155.372C51.8783 155.373 48.0823 154.989 44.3539 154.226C35.9517 152.448 28.1324 148.583 21.6169 142.988C16.9763 139.039 12.8779 134.495 9.42796 129.472C4.96696 123.066 2.12797 118.665 0.838967 115.13C0.219821 113.612 -0.0631048 111.977 0.00974354 110.339C0.0825918 108.701 0.509483 107.098 1.26096 105.64C2.28276 103.256 4.12359 101.315 6.45097 100.169C6.54698 99.1231 6.91106 98.1197 7.50803 97.2555C8.10501 96.3914 8.91468 95.6959 9.85893 95.236C16.3989 92.298 23.9449 96.845 27.6809 99.642C27.7179 99.452 27.7579 99.2571 27.8009 99.0611C28.4199 96.2841 29.489 94.399 30.977 93.461C31.6526 93.0482 32.4226 92.8153 33.2138 92.7841C34.0049 92.753 34.7909 92.9247 35.4969 93.283C37.6069 94.194 39.1469 96.8831 40.2049 101.489C40.6162 103.323 40.9168 105.18 41.105 107.05C42.241 108.336 46.6799 112.894 53.0119 113.573C64.5699 114.811 89.5119 102.682 89.7589 102.56C90.02 102.432 90.3109 102.378 90.6006 102.402C90.8903 102.426 91.168 102.529 91.404 102.699C91.6401 102.868 91.8257 103.099 91.941 103.366C92.0563 103.633 92.0971 103.926 92.0589 104.214L86.5589 145.814C86.5293 146.038 86.4526 146.254 86.3338 146.447C86.2151 146.639 86.057 146.805 85.8699 146.932C82.15 149.268 78.1434 151.114 73.9499 152.422C69.6905 153.817 65.2874 154.729 60.824 155.138C59.1126 155.294 57.3993 155.372 55.6839 155.372ZM8.37492 102.858C7.42452 103.209 6.5596 103.759 5.83744 104.469C5.11528 105.18 4.55238 106.036 4.18595 106.981C2.12695 111.468 2.63292 114.081 12.0699 127.636C20.9409 140.377 32.329 148.483 45.003 151.078C54.3135 152.932 63.9455 152.343 72.9609 149.369C76.6332 148.196 80.1618 146.613 83.48 144.651L88.493 106.705C85.874 107.905 81.593 109.78 76.782 111.581C66.082 115.591 57.9679 117.336 52.6739 116.769C43.9409 115.833 38.514 108.979 38.287 108.688C38.0932 108.439 37.977 108.139 37.9529 107.824C37.7818 105.923 37.4866 104.036 37.0689 102.174C35.9489 97.317 34.611 96.3991 34.227 96.2341C33.268 95.8201 32.8529 96.08 32.6969 96.178C31.3469 97.028 30.615 100.559 30.527 102.795C30.5149 103.102 30.415 103.4 30.239 103.652C30.063 103.904 29.8184 104.1 29.5341 104.218C29.2498 104.335 28.9379 104.368 28.6353 104.314C28.3327 104.259 28.0521 104.118 27.8269 103.909C27.7269 103.821 18.1509 95.037 11.1809 98.168C9.57495 98.89 9.60393 101.068 9.60893 101.223C9.63884 101.599 9.52981 101.974 9.30241 102.275C9.075 102.576 8.745 102.784 8.37492 102.858Z" fill="black"/>
<path d="M30.2428 102.733C30.2711 103.143 30.2306 103.555 30.1228 103.952C30.0778 104.136 30.0228 104.294 29.9658 104.458C29.9088 104.622 29.8458 104.766 29.7838 104.905C29.547 105.418 29.284 105.919 28.9958 106.405C28.7338 106.861 28.4828 107.295 28.2488 107.729L28.0777 108.056C28.0237 108.165 27.9668 108.274 27.9138 108.384L27.7618 108.716L27.6168 109.052L27.4848 109.393L27.3628 109.739C27.3208 109.855 27.2908 109.973 27.2538 110.091C27.2168 110.209 27.1858 110.328 27.1538 110.448C27.0258 110.936 26.9296 111.431 26.8658 111.932C26.7978 112.45 26.7573 112.971 26.7447 113.494C26.7317 113.76 26.7368 114.028 26.7348 114.299C26.7348 114.435 26.7418 114.569 26.7428 114.706C26.7438 114.843 26.7497 114.98 26.7497 115.119V115.129C26.7498 115.172 26.7354 115.214 26.7086 115.248C26.6818 115.283 26.6442 115.307 26.602 115.317C26.5598 115.327 26.5155 115.323 26.4761 115.305C26.4366 115.286 26.4044 115.256 26.3847 115.217C26.1208 114.714 25.8965 114.192 25.7139 113.655C25.1345 111.969 24.9967 110.162 25.3138 108.408L25.4028 107.963C25.4368 107.816 25.4748 107.67 25.5118 107.524C25.5488 107.378 25.5937 107.235 25.6347 107.09C25.6757 106.945 25.7278 106.806 25.7738 106.663C25.9664 106.114 26.1936 105.577 26.4538 105.057C26.6988 104.557 26.9608 104.08 27.1728 103.669C27.3326 103.365 27.4742 103.052 27.5968 102.731L27.7528 102.349C27.8647 102.081 28.0629 101.859 28.3159 101.717C28.5689 101.574 28.8623 101.521 29.1492 101.565C29.436 101.609 29.6999 101.748 29.8988 101.959C30.0977 102.17 30.2202 102.442 30.2468 102.731L30.2428 102.733Z" fill="black"/>
<path d="M42.9112 153.756C42.6599 153.761 42.4146 153.679 42.2161 153.525C42.0176 153.371 41.878 153.153 41.8203 152.908C41.7627 152.664 41.7905 152.407 41.8993 152.18C42.0081 151.954 42.1912 151.771 42.4181 151.663C46.8731 149.447 49.9182 142.53 51.2182 131.663C51.8317 126.241 52.0275 120.78 51.8041 115.328C51.7878 115.036 51.888 114.75 52.0828 114.532C52.2775 114.314 52.5509 114.183 52.8427 114.167C53.1344 114.15 53.4206 114.25 53.6385 114.445C53.8563 114.64 53.9879 114.913 54.0042 115.205C54.2337 120.776 54.0352 126.356 53.4102 131.896C52.9673 136.286 51.9749 140.604 50.4562 144.747C48.7072 149.189 46.3321 152.181 43.3971 153.641C43.2461 153.716 43.0798 153.755 42.9112 153.756Z" fill="black"/>
<g opacity="0.35">
<g opacity="0.35">
<g opacity="0.35">
<g opacity="0.35">
<path opacity="0.35" d="M185.411 224.825V224.6C183.645 224.676 185.411 224.825 185.411 224.825Z" fill="black"/>
</g>
</g>
</g>
</g>
<path d="M163.124 197.701H57.0498C57.0498 197.701 57.6968 179.395 63.9718 153.142C66.7819 141.351 70.3169 129.745 74.5568 118.389C75.6734 115.408 76.8624 112.394 78.1238 109.346C81.7903 100.491 85.9423 91.8442 90.5608 83.446H129.612C133.577 90.641 137.076 97.8309 140.161 104.914C142.161 109.494 143.981 114.025 145.645 118.476C151.831 135.083 156.522 152.209 159.661 169.651C161.417 178.917 162.574 188.286 163.124 197.701Z" fill="white"/>
<path d="M148.563 132.13C150.382 134.365 151.697 136.967 152.416 139.758C152.85 141.097 153.279 142.437 153.688 143.784C153.888 144.457 154.103 145.129 154.288 145.808C154.473 146.487 154.659 147.165 154.842 147.845L155.379 149.886C155.556 150.567 155.734 151.248 155.9 151.931L156.876 156.038C157.035 156.723 157.209 157.405 157.364 158.091L157.829 160.149L158.307 162.204C158.468 162.889 158.634 163.572 158.784 164.259L159.704 168.378C159.862 169.064 159.998 169.754 160.144 170.442L160.575 172.508L160.791 173.541L160.898 174.058L160.998 174.576L161.398 176.648C161.531 177.338 161.671 178.028 161.817 178.717C161.956 179.407 162.097 180.097 162.243 180.786C162.873 183.535 163.291 186.329 163.493 189.142C163.517 189.495 163.544 189.842 163.561 190.2L163.606 191.261C163.629 191.969 163.649 192.677 163.638 193.389C163.627 194.101 163.617 194.812 163.572 195.527C163.527 196.242 163.472 196.956 163.364 197.676C163.356 197.731 163.329 197.783 163.289 197.822C163.248 197.861 163.196 197.885 163.14 197.891C163.084 197.897 163.027 197.884 162.98 197.855C162.932 197.825 162.895 197.78 162.875 197.728C162.368 196.381 161.954 195.028 161.563 193.675C161.371 192.997 161.185 192.32 161.006 191.642L160.748 190.624C160.667 190.284 160.583 189.945 160.498 189.605C160.169 188.246 159.88 186.883 159.619 185.513C159.493 184.827 159.378 184.14 159.275 183.452C159.163 182.764 159.059 182.075 158.952 181.386C158.845 180.697 158.738 180.008 158.627 179.32C158.516 178.632 158.377 177.948 158.244 177.264L157.844 175.211L157.744 174.698L157.638 174.186L157.424 173.162L156.996 171.114C156.851 170.432 156.716 169.748 156.56 169.068L155.647 164.984C155.5 164.302 155.329 163.625 155.167 162.947L154.667 160.915L154.155 158.886C154.072 158.547 153.977 158.211 153.888 157.874L153.613 156.864L152.513 152.827C152.131 151.485 151.742 150.146 151.369 148.802C151.184 148.13 150.998 147.458 150.818 146.784L150.683 146.279L150.541 145.779L150.261 144.771C149.887 143.427 149.533 142.078 149.184 140.726L148.928 139.711C148.842 139.373 148.747 139.037 148.658 138.7C148.479 138.025 148.329 137.342 148.215 136.647C148.1 135.943 148.026 135.234 147.994 134.522C147.978 134.16 147.978 133.794 147.994 133.422C148.003 133.042 148.036 132.662 148.094 132.287V132.272C148.103 132.222 148.125 132.175 148.159 132.137C148.193 132.099 148.236 132.072 148.285 132.058C148.334 132.044 148.386 132.044 148.434 132.058C148.483 132.072 148.527 132.099 148.561 132.137L148.563 132.13Z" fill="black"/>
<path d="M56.803 197.692C56.6503 197.339 56.523 196.975 56.4221 196.604C56.3171 196.24 56.238 195.88 56.168 195.518C56.0329 194.804 55.9461 194.082 55.908 193.356C55.888 192.997 55.875 192.637 55.876 192.28C55.877 191.923 55.891 191.566 55.908 191.21L55.9681 190.142C55.9871 189.786 56.009 189.43 56.038 189.075C56.149 187.655 56.2561 186.233 56.4221 184.819C56.4971 184.111 56.5811 183.404 56.6641 182.697C56.7041 182.343 56.7591 181.992 56.8071 181.639L56.9561 180.582L57.268 178.47C57.377 177.77 57.5051 177.07 57.6241 176.37C57.8681 174.97 58.097 173.565 58.376 172.17C58.655 170.775 58.8931 169.37 59.1711 167.979C59.4491 166.588 59.726 165.191 59.996 163.796C60.065 163.447 60.1271 163.096 60.2021 162.75L60.424 161.707L60.8681 159.622L61.313 157.537C61.351 157.363 61.3861 157.189 61.4261 157.016L61.548 156.497L61.792 155.459L62.766 151.308C62.845 150.962 62.9331 150.617 63.0201 150.273C63.1071 149.929 63.192 149.584 63.273 149.238C63.437 148.547 63.6 147.854 63.757 147.161C63.914 146.468 64.0731 145.774 64.2391 145.083C64.4051 144.392 64.5981 143.707 64.7971 143.025C64.9961 142.343 65.217 141.666 65.444 140.992C65.671 140.318 65.9141 139.648 66.1591 138.979L66.537 137.979C66.6 137.813 66.6711 137.648 66.7371 137.479C66.8031 137.31 66.8741 137.149 66.9461 136.986C67.2311 136.33 67.5201 135.676 67.8271 135.028C68.1341 134.38 68.4481 133.735 68.7811 133.097C69.1141 132.459 69.4591 131.826 69.8421 131.206C69.8719 131.158 69.9166 131.122 69.9693 131.102C70.022 131.083 70.0797 131.082 70.1334 131.098C70.187 131.115 70.2335 131.149 70.2657 131.195C70.2978 131.241 70.3138 131.297 70.3111 131.353C70.0932 134.199 69.6775 137.026 69.0671 139.814C68.9291 140.506 68.787 141.197 68.632 141.883C68.477 142.569 68.308 143.252 68.132 143.932C67.759 145.287 67.3851 146.641 66.9941 147.992C66.7941 148.668 66.6091 149.345 66.4201 150.022C66.3201 150.36 66.2351 150.7 66.1441 151.04C66.0531 151.38 65.963 151.719 65.887 152.062L64.923 156.169L64.6821 157.195L64.5621 157.708C64.5231 157.879 64.4881 158.052 64.4511 158.223L64.011 160.286L63.5711 162.349L63.351 163.38C63.277 163.724 63.2161 164.07 63.1511 164.415C62.0221 169.926 61.2631 175.503 60.5261 181.068L60.24 183.154C60.151 183.854 60.062 184.546 59.965 185.241L59.396 189.412C59.2961 190.107 59.209 190.802 59.116 191.498C59.068 191.845 59.0161 192.193 58.9521 192.539C58.8881 192.885 58.826 193.231 58.752 193.577C58.598 194.268 58.4067 194.956 58.178 195.643C58.065 195.987 57.9301 196.331 57.7911 196.674C57.6487 197.026 57.4857 197.37 57.303 197.703C57.2781 197.747 57.2415 197.784 57.1971 197.808C57.1527 197.833 57.1023 197.845 57.0516 197.843C57.0008 197.841 56.9517 197.825 56.9096 197.796C56.8675 197.768 56.8341 197.728 56.813 197.682L56.803 197.692Z" fill="black"/>
<path d="M87.6018 174.605C81.5518 177.054 72.1898 176.542 65.8018 175.769C64.8932 175.659 64.0159 175.367 63.2217 174.912C62.4275 174.457 61.7326 173.847 61.1778 173.119C60.623 172.391 60.2197 171.56 59.9916 170.673C59.7635 169.787 59.7153 168.863 59.8498 167.958C60.0969 166.277 60.9596 164.748 62.2704 163.668C63.5813 162.587 65.2467 162.032 66.9438 162.11C72.9138 162.39 81.8697 162.521 87.5437 161.263" fill="white"/>
<g opacity="0.35">
<g opacity="0.35">
<g opacity="0.35">
<g opacity="0.35">
<path opacity="0.35" d="M87.6028 174.604C81.5508 177.057 72.1887 176.54 65.8027 175.772C64.7026 175.636 63.6517 175.235 62.74 174.605C61.8283 173.974 61.0827 173.132 60.5671 172.151C60.0516 171.169 59.7813 170.078 59.7793 168.969C59.7773 167.861 60.0437 166.768 60.5558 165.785C61.0702 166.77 61.8167 167.615 62.731 168.246C63.6452 168.878 64.6995 169.277 65.8027 169.41C72.1747 170.183 81.5208 170.695 87.5728 168.258L87.6028 174.604Z" fill="black"/>
</g>
</g>
</g>
</g>
<path d="M75.574 178.018C72.2438 177.998 68.9175 177.781 65.613 177.368C63.4395 177.103 61.4533 176.006 60.0713 174.308C58.6894 172.609 58.0193 170.441 58.2018 168.259C58.3843 166.078 59.4051 164.051 61.05 162.606C62.6948 161.161 64.8357 160.409 67.023 160.509C75.818 160.921 82.982 160.633 87.197 159.698C88.043 159.511 90.146 159.504 91.386 163.498C92.646 167.551 92.507 174.361 88.204 176.098C84.656 177.531 80.099 178.018 75.574 178.018ZM66.622 163.718C65.2847 163.72 63.9985 164.232 63.0258 165.15C62.0531 166.067 61.4673 167.322 61.3879 168.657C61.3084 169.992 61.7412 171.307 62.5981 172.333C63.455 173.36 64.6713 174.021 65.999 174.182C75.126 175.282 82.584 174.911 86.999 173.124C88.31 172.593 88.686 170.469 88.787 169.58C89.14 166.471 88.194 163.598 87.602 162.903C81.85 164.112 73.182 164.019 66.873 163.723C66.789 163.714 66.7053 163.71 66.622 163.71V163.718Z" fill="black"/>
<path d="M133.876 174.605C139.926 177.054 149.289 176.542 155.676 175.769C156.585 175.659 157.462 175.367 158.256 174.912C159.05 174.457 159.745 173.847 160.3 173.119C160.855 172.391 161.258 171.56 161.486 170.673C161.714 169.787 161.763 168.863 161.628 167.958C161.381 166.277 160.518 164.748 159.208 163.668C157.897 162.587 156.231 162.032 154.534 162.11C148.564 162.39 139.608 162.521 133.934 161.263" fill="white"/>
<g opacity="0.35">
<g opacity="0.35">
<g opacity="0.35">
<g opacity="0.35">
<path opacity="0.35" d="M155.67 175.772C149.288 176.54 139.925 177.057 133.87 174.604L133.896 168.204C139.948 170.641 149.296 170.129 155.666 169.356C156.764 169.225 157.814 168.829 158.725 168.201C159.636 167.574 160.381 166.735 160.896 165.756C161.417 166.739 161.692 167.834 161.696 168.946C161.7 170.059 161.433 171.156 160.918 172.142C160.403 173.128 159.655 173.974 158.74 174.607C157.825 175.24 156.77 175.641 155.666 175.775L155.67 175.772Z" fill="black"/>
</g>
</g>
</g>
</g>
<path d="M145.904 178.018C141.379 178.018 136.822 177.535 133.273 176.098C128.973 174.356 128.831 167.547 130.091 163.498C131.331 159.509 133.434 159.515 134.28 159.698C138.495 160.633 145.659 160.921 154.454 160.509C156.641 160.409 158.782 161.161 160.427 162.606C162.072 164.051 163.093 166.078 163.275 168.26C163.458 170.442 162.788 172.609 161.406 174.308C160.024 176.006 158.038 177.103 155.864 177.368C152.56 177.781 149.234 177.998 145.904 178.018ZM133.876 162.899C133.284 163.594 132.337 166.467 132.69 169.576C132.79 170.465 133.167 172.589 134.479 173.12C138.893 174.907 146.351 175.283 155.479 174.178C156.827 174.014 158.059 173.333 158.917 172.28C159.774 171.226 160.19 169.882 160.076 168.528C159.963 167.175 159.33 165.918 158.31 165.021C157.29 164.125 155.962 163.658 154.605 163.72C148.298 164.011 139.628 164.103 133.876 162.895V162.899Z" fill="black"/>
<path d="M136.214 156.853V178.234C136.208 180.145 135.446 181.977 134.095 183.329C132.743 184.68 130.911 185.442 129 185.448H89.625C87.7143 185.441 85.8839 184.679 84.5333 183.327C83.1827 181.976 82.4215 180.145 82.416 178.234V156.853C82.4218 154.943 83.1832 153.113 84.5339 151.762C85.8847 150.412 87.7149 149.65 89.625 149.645H129C130.911 149.649 132.742 150.41 134.094 151.76C135.446 153.111 136.208 154.942 136.214 156.853Z" fill="white"/>
<g opacity="0.35">
<g opacity="0.35">
<g opacity="0.35">
<g opacity="0.35">
<path opacity="0.35" d="M136.214 156.855V178.236C136.209 180.147 135.447 181.978 134.096 183.329C132.744 184.681 130.913 185.442 129.002 185.448H89.6271C87.716 185.442 85.8849 184.681 84.5336 183.329C83.1823 181.978 82.4206 180.147 82.415 178.236V170.236C88.329 176.265 99.9591 180.05 110.625 180.107C112.274 180.097 113.857 179.46 115.052 178.325C116.248 177.19 116.966 175.642 117.061 173.996C117.061 173.962 117.066 173.927 117.069 173.896C117.209 172.357 117.916 170.925 119.054 169.88C120.191 168.834 121.677 168.249 123.222 168.239C124.768 168.229 126.261 168.794 127.412 169.824C128.564 170.855 129.29 172.277 129.45 173.814C134.612 167.44 133.101 156.362 134.743 152.505C135.699 153.754 136.216 155.283 136.214 156.855Z" fill="black"/>
</g>
</g>
</g>
</g>
<path d="M129.002 187.055H89.6251C87.2875 187.052 85.0464 186.122 83.3934 184.469C81.7405 182.817 80.8108 180.576 80.8081 178.238V156.854C80.8108 154.516 81.7405 152.275 83.3934 150.622C85.0464 148.969 87.2875 148.04 89.6251 148.037H129.002C131.34 148.04 133.581 148.969 135.234 150.622C136.887 152.275 137.816 154.516 137.819 156.854V178.238C137.816 180.576 136.887 182.817 135.234 184.469C133.581 186.122 131.34 187.052 129.002 187.055ZM89.6251 151.255C88.1406 151.257 86.7177 151.848 85.668 152.898C84.6183 153.947 84.0275 155.37 84.0251 156.855V178.239C84.0278 179.723 84.6186 181.146 85.6682 182.196C86.7178 183.245 88.1407 183.836 89.6251 183.839H129.002C130.486 183.836 131.909 183.245 132.959 182.196C134.009 181.146 134.599 179.723 134.602 178.239V156.855C134.599 155.371 134.009 153.948 132.959 152.898C131.909 151.848 130.486 151.258 129.002 151.255H89.6251Z" fill="black"/>
<path d="M123.264 173.764C126.698 173.764 129.482 170.98 129.482 167.546C129.482 164.112 126.698 161.328 123.264 161.328C119.83 161.328 117.046 164.112 117.046 167.546C117.046 170.98 119.83 173.764 123.264 173.764Z" fill="#22A7F0"/>
<g opacity="0.7">
<g opacity="0.7">
<g opacity="0.7">
<g opacity="0.7">
<path opacity="0.7" d="M129.481 167.546C129.482 167.963 129.441 168.379 129.36 168.788C129.077 167.379 128.315 166.111 127.203 165.2C126.091 164.29 124.698 163.792 123.26 163.792C121.823 163.792 120.43 164.29 119.318 165.2C118.206 166.111 117.443 167.379 117.16 168.788C117.079 168.379 117.038 167.963 117.039 167.546C117.06 165.91 117.724 164.349 118.888 163.2C120.052 162.05 121.622 161.406 123.258 161.406C124.893 161.406 126.463 162.05 127.627 163.2C128.791 164.349 129.455 165.91 129.476 167.546H129.481Z" fill="white"/>
</g>
</g>
</g>
</g>
<g opacity="0.35">
<g opacity="0.35">
<g opacity="0.35">
<g opacity="0.35">
<path opacity="0.35" d="M129.48 167.544C129.48 169.193 128.825 170.774 127.659 171.94C126.493 173.106 124.912 173.761 123.263 173.761C121.614 173.761 120.033 173.106 118.867 171.94C117.701 170.774 117.046 169.193 117.046 167.544C117.044 166.774 117.189 166.01 117.473 165.294C117.926 166.461 118.722 167.464 119.755 168.171C120.788 168.878 122.011 169.257 123.263 169.257C124.516 169.257 125.738 168.878 126.772 168.171C127.805 167.464 128.601 166.461 129.054 165.294C129.337 166.01 129.482 166.774 129.48 167.544Z" fill="black"/>
</g>
</g>
</g>
</g>
<path d="M123.264 174.966C121.796 174.966 120.361 174.53 119.14 173.715C117.919 172.899 116.968 171.74 116.406 170.384C115.844 169.027 115.697 167.535 115.983 166.095C116.27 164.655 116.977 163.332 118.015 162.294C119.053 161.256 120.376 160.549 121.816 160.262C123.256 159.976 124.748 160.123 126.105 160.685C127.461 161.247 128.62 162.198 129.436 163.419C130.252 164.64 130.687 166.075 130.687 167.543C130.684 169.511 129.902 171.398 128.51 172.789C127.119 174.181 125.232 174.963 123.264 174.966ZM123.264 162.53C122.272 162.53 121.303 162.824 120.479 163.375C119.654 163.926 119.012 164.709 118.632 165.625C118.253 166.541 118.154 167.549 118.347 168.521C118.541 169.493 119.018 170.387 119.719 171.088C120.42 171.789 121.314 172.266 122.286 172.459C123.258 172.653 124.266 172.554 125.182 172.174C126.098 171.795 126.881 171.152 127.432 170.328C127.983 169.504 128.277 168.534 128.277 167.543C128.275 166.214 127.745 164.941 126.806 164.002C125.866 163.063 124.592 162.535 123.264 162.533V162.53Z" fill="black"/>
<path d="M105.643 186.653C105.323 186.653 105.017 186.526 104.791 186.3C104.565 186.074 104.438 185.768 104.438 185.448V170.803L96.563 164.875V149.645C96.563 149.325 96.69 149.019 96.916 148.793C97.142 148.567 97.4485 148.44 97.7681 148.44C98.0877 148.44 98.3941 148.567 98.6201 148.793C98.8461 149.019 98.973 149.325 98.973 149.645V163.673L106.848 169.601V185.449C106.848 185.768 106.721 186.075 106.495 186.3C106.269 186.526 105.962 186.653 105.643 186.653Z" fill="black"/>
<path d="M110.086 196.96C117.05 196.944 123.769 194.39 128.986 189.776C136.232 183.406 148.432 175.809 161.896 180.682C166.728 182.445 170.818 185.797 173.496 190.188C179.965 175.199 193.536 174.3 199.409 182.796C199.409 182.796 189.536 229.896 186.318 230.948C181.708 232.448 170.632 230.87 170.632 230.87C170.632 230.87 132.098 225.653 110.093 225.653C88.0878 225.653 49.5539 230.87 49.5539 230.87C49.5539 230.87 38.4779 232.449 33.8679 230.948C30.6499 229.9 20.7769 182.796 20.7769 182.796C26.6499 174.296 40.2219 175.196 46.6899 190.188C49.3679 185.797 53.4579 182.445 58.2899 180.682C71.7549 175.809 83.9539 183.406 91.2009 189.776C96.4176 194.39 103.137 196.944 110.101 196.96H110.086Z" fill="white"/>
<g opacity="0.35">
<g opacity="0.35">
<g opacity="0.35">
<g opacity="0.35">
<path opacity="0.35" d="M199.403 182.793C199.403 182.793 189.529 229.898 186.311 230.947C181.703 232.447 170.624 230.87 170.624 230.87C170.624 230.87 132.091 225.652 110.085 225.652C88.079 225.652 49.546 230.87 49.546 230.87C49.546 230.87 38.471 232.449 33.863 230.947C30.645 229.898 20.771 182.793 20.771 182.793C21.6945 181.445 22.8689 180.286 24.23 179.382C27.396 193.194 31.887 211.226 33.863 211.869C38.471 213.369 49.546 211.788 49.546 211.788C49.546 211.788 88.083 201.351 110.085 201.351C132.087 201.351 170.624 211.788 170.624 211.788C170.624 211.788 181.703 213.367 186.311 211.869C188.287 211.226 192.779 193.193 195.944 179.382C197.305 180.286 198.48 181.445 199.403 182.793Z" fill="black"/>
</g>
</g>
</g>
</g>
<path d="M39.8022 233.198C37.6326 233.27 35.4641 233.026 33.3642 232.476C32.2322 232.107 31.2792 230.852 29.4922 225.286C28.4462 222.028 27.1922 217.486 25.7632 211.8C23.1912 201.555 20.6842 190.066 19.7252 185.6C19.4738 184.466 19.5263 183.285 19.8775 182.177C20.2287 181.07 20.866 180.074 21.7252 179.292C23.3648 177.823 25.3339 176.77 27.4661 176.221C29.5983 175.673 31.8312 175.645 33.9762 176.141C36.9348 176.839 39.6587 178.3 41.8762 180.379C43.93 182.294 45.6446 184.543 46.9472 187.03C49.7209 183.435 53.4646 180.707 57.7372 179.169C62.584 177.409 67.8282 177.049 72.8702 178.129C77.3682 179.127 81.6474 180.935 85.4992 183.463C85.8538 183.694 86.1027 184.056 86.1922 184.47C86.2817 184.883 86.2044 185.315 85.9771 185.672C85.7498 186.029 85.391 186.282 84.9784 186.376C84.5657 186.47 84.1326 186.398 83.7732 186.174C75.1272 180.674 66.7352 179.33 58.8302 182.19C54.3346 183.833 50.5311 186.955 48.0442 191.045C47.8878 191.292 47.667 191.492 47.4055 191.622C47.1441 191.753 46.8519 191.81 46.5605 191.787C46.2691 191.764 45.9894 191.662 45.7517 191.492C45.5139 191.322 45.3271 191.09 45.2112 190.822C42.5112 184.559 38.1622 180.351 33.2872 179.279C31.6396 178.896 29.9239 178.914 28.2849 179.333C26.646 179.752 25.1318 180.559 23.8702 181.686C23.4334 182.09 23.111 182.603 22.9354 183.171C22.7598 183.74 22.7373 184.345 22.8702 184.925C23.7702 189.138 26.1452 200.01 28.6152 209.943C29.9722 215.403 31.1762 219.843 32.1912 223.143C33.6132 227.763 34.3562 229.119 34.6202 229.497C38.2512 230.514 46.4202 229.697 49.3202 229.279H49.3312C49.7172 229.226 88.2253 224.047 110.086 224.047C131.947 224.047 170.454 229.226 170.841 229.279H170.852C173.76 229.693 181.925 230.514 185.552 229.497C185.812 229.126 186.534 227.81 187.909 223.378C188.9 220.178 190.075 215.878 191.4 210.578C193.762 201.131 196.025 190.852 197.165 185.567C197.353 184.734 197.297 183.864 197.004 183.062C196.711 182.26 196.192 181.559 195.511 181.044C194.209 180.086 192.704 179.441 191.113 179.159C189.522 178.876 187.887 178.964 186.335 179.415C181.626 180.688 177.586 184.74 174.961 190.824C174.845 191.092 174.658 191.324 174.421 191.494C174.183 191.664 173.903 191.766 173.612 191.789C173.32 191.812 173.028 191.755 172.767 191.624C172.505 191.494 172.285 191.294 172.128 191.047C169.642 186.958 165.838 183.835 161.343 182.192C153.369 179.306 144.905 180.692 136.184 186.313C135.826 186.529 135.398 186.598 134.991 186.503C134.584 186.409 134.229 186.16 134.002 185.809C133.776 185.457 133.695 185.031 133.777 184.621C133.86 184.211 134.099 183.85 134.443 183.613C138.314 181.04 142.622 179.193 147.154 178.162C152.241 177.044 157.541 177.394 162.436 179.171C166.709 180.709 170.453 183.437 173.226 187.033C176.245 181.422 180.532 177.656 185.497 176.314C187.517 175.746 189.64 175.644 191.705 176.016C193.77 176.387 195.724 177.223 197.419 178.459C198.598 179.342 199.498 180.546 200.01 181.927C200.522 183.308 200.625 184.808 200.307 186.246C199.1 191.846 196.707 202.696 194.248 212.435C192.848 217.958 191.627 222.358 190.605 225.513C188.861 230.895 187.925 232.113 186.805 232.477C181.919 234.068 170.96 232.543 170.405 232.464C169.805 232.382 131.666 227.264 110.086 227.264C88.5063 227.264 50.3712 232.385 49.7672 232.464C46.464 232.915 43.1359 233.16 39.8022 233.198Z" fill="black"/>
<path d="M183.449 230.948H186.311C187.955 230.949 189.565 230.474 190.945 229.58C192.324 228.686 193.416 227.41 194.086 225.909C198.37 216.315 206.186 195.236 198.865 182.372C198.652 181.997 198.425 181.636 198.183 181.289C198.183 181.289 191.159 174.9 186.113 183.938C181.4 192.381 171.506 228.482 183.449 230.948Z" fill="#AFAFB2"/>
<g opacity="0.7">
<g opacity="0.7">
<g opacity="0.7">
<g opacity="0.7">
<path opacity="0.7" d="M183.528 189.956C183.654 189.756 183.781 189.563 183.903 189.386C190.103 180.348 198.745 186.737 198.745 186.737C199.042 187.084 199.321 187.445 199.582 187.82C200.434 189.042 201.139 190.36 201.682 191.747C201.403 188.461 200.443 185.268 198.863 182.373C198.65 181.998 198.423 181.637 198.181 181.29C198.181 181.29 191.157 174.901 186.111 183.939C185.098 185.876 184.235 187.888 183.528 189.956Z" fill="white"/>
</g>
</g>
</g>
</g>
<path d="M201.645 192.715C201.572 192.715 201.498 192.709 201.425 192.697L183.869 189.766C183.523 189.708 183.213 189.515 183.009 189.229C182.805 188.942 182.723 188.587 182.781 188.241C182.839 187.894 183.032 187.585 183.318 187.38C183.604 187.176 183.96 187.094 184.306 187.152L201.862 190.083C202.19 190.138 202.486 190.313 202.69 190.576C202.894 190.838 202.992 191.168 202.965 191.499C202.938 191.83 202.787 192.139 202.543 192.364C202.298 192.59 201.978 192.715 201.645 192.715Z" fill="black"/>
<path d="M201.533 202.195C201.474 202.195 201.414 202.191 201.355 202.183L180.817 199.422C180.473 199.37 180.164 199.185 179.956 198.907C179.747 198.629 179.656 198.28 179.703 197.935C179.749 197.591 179.929 197.279 180.203 197.065C180.478 196.852 180.825 196.755 181.17 196.796L201.707 199.557C202.04 199.602 202.343 199.772 202.555 200.032C202.768 200.292 202.873 200.623 202.851 200.957C202.829 201.292 202.681 201.607 202.436 201.836C202.191 202.066 201.868 202.194 201.532 202.195H201.533Z" fill="black"/>
<path d="M199.722 211.487C199.668 211.487 199.613 211.484 199.559 211.477L178.711 208.925C178.536 208.906 178.367 208.853 178.213 208.769C178.059 208.684 177.923 208.57 177.813 208.432C177.704 208.294 177.623 208.136 177.575 207.967C177.527 207.798 177.514 207.621 177.535 207.446C177.557 207.272 177.612 207.103 177.7 206.951C177.787 206.798 177.903 206.664 178.043 206.557C178.182 206.45 178.342 206.371 178.512 206.326C178.682 206.281 178.859 206.271 179.033 206.295L199.881 208.847C200.216 208.888 200.522 209.055 200.737 209.315C200.953 209.574 201.062 209.905 201.041 210.242C201.021 210.578 200.873 210.894 200.628 211.125C200.383 211.357 200.059 211.486 199.722 211.487Z" fill="black"/>
<path d="M196.416 221.618C196.376 221.618 196.336 221.618 196.295 221.613L177.656 219.931C177.481 219.918 177.31 219.87 177.154 219.79C176.997 219.71 176.858 219.6 176.745 219.466C176.631 219.332 176.545 219.177 176.492 219.009C176.439 218.842 176.42 218.665 176.436 218.491C176.452 218.316 176.502 218.146 176.584 217.99C176.666 217.835 176.779 217.698 176.914 217.586C177.05 217.474 177.207 217.391 177.375 217.341C177.543 217.29 177.72 217.273 177.894 217.292L196.533 218.974C196.874 219.004 197.189 219.164 197.415 219.42C197.64 219.677 197.757 220.011 197.742 220.352C197.727 220.694 197.581 221.016 197.333 221.252C197.086 221.488 196.758 221.619 196.416 221.619V221.618Z" fill="black"/>
<g opacity="0.35">
<g opacity="0.35">
<g opacity="0.35">
<g opacity="0.35">
<path opacity="0.35" d="M183.448 230.948H186.31C187.954 230.949 189.564 230.474 190.944 229.58C192.324 228.686 193.415 227.41 194.085 225.909C195.193 223.422 196.539 220.17 197.799 216.485C196.811 217.965 195.463 219.17 193.881 219.985C192.299 220.8 190.536 221.199 188.757 221.145H185.346C180.491 220.304 178.665 215.545 178.593 209.302C176.952 219.834 177.4 229.699 183.448 230.948Z" fill="black"/>
</g>
</g>
</g>
</g>
<path d="M186.312 232.272H183.448C183.358 232.272 183.268 232.263 183.18 232.245C182.013 231.988 180.927 231.447 180.02 230.669C179.113 229.891 178.412 228.901 177.98 227.787C175.304 221.938 176.605 211.747 178.168 204.229C180.077 195.041 183.026 186.742 184.951 183.293C186.722 180.122 188.951 178.293 191.578 177.868C195.607 177.211 198.93 180.183 199.069 180.31C199.144 180.376 199.211 180.451 199.269 180.532C199.533 180.91 199.785 181.31 200.017 181.719C203.361 187.598 204.07 195.64 202.126 205.619C200.619 212.791 198.329 219.776 195.296 226.448C194.52 228.182 193.259 229.655 191.665 230.688C190.071 231.722 188.212 232.271 186.312 232.272ZM183.594 229.622H186.312C187.7 229.622 189.058 229.221 190.223 228.466C191.387 227.711 192.309 226.636 192.876 225.369C195.827 218.881 198.057 212.088 199.525 205.113C201.345 195.772 200.735 188.341 197.713 183.027C197.548 182.737 197.373 182.455 197.19 182.184C196.69 181.779 194.439 180.077 191.99 180.484C190.208 180.784 188.618 182.16 187.265 184.584C185.483 187.776 182.598 195.935 180.765 204.767C178.671 214.846 178.538 222.63 180.393 226.684C180.652 227.394 181.078 228.032 181.635 228.544C182.192 229.055 182.864 229.425 183.594 229.622Z" fill="black"/>
<path d="M36.7232 230.948H33.8642C32.2199 230.949 30.6104 230.474 29.2305 229.58C27.8507 228.686 26.7595 227.41 26.0892 225.909C21.8052 216.315 13.9892 195.236 21.3102 182.372C21.5229 181.997 21.7502 181.636 21.9922 181.289C21.9922 181.289 29.0162 174.9 34.0622 183.938C38.7732 192.381 48.6642 228.482 36.7232 230.948Z" fill="#AFAFB2"/>
<g opacity="0.7">
<g opacity="0.7">
<g opacity="0.7">
<g opacity="0.7">
<path opacity="0.7" d="M36.6428 189.956C36.5168 189.756 36.3898 189.563 36.2678 189.386C30.0678 180.348 21.4258 186.737 21.4258 186.737C21.1287 187.084 20.8493 187.445 20.5888 187.82C19.7365 189.042 19.0316 190.36 18.4888 191.747C18.7674 188.461 19.7275 185.268 21.3078 182.373C21.5205 181.998 21.7478 181.637 21.9898 181.29C21.9898 181.29 29.0138 174.901 34.0598 183.939C35.0727 185.876 35.9361 187.888 36.6428 189.956Z" fill="white"/>
</g>
</g>
</g>
</g>
<path d="M18.526 192.715C18.1936 192.714 17.8736 192.589 17.6293 192.364C17.385 192.138 17.2343 191.83 17.2071 191.498C17.1799 191.167 17.2782 190.838 17.4825 190.575C17.6868 190.313 17.9821 190.138 18.31 190.083L35.866 187.152C36.0377 187.123 36.2132 187.129 36.3827 187.168C36.5523 187.207 36.7124 187.279 36.8541 187.381C36.9957 187.482 37.1159 187.61 37.2081 187.757C37.3002 187.905 37.3624 188.069 37.391 188.241C37.4196 188.413 37.4142 188.588 37.3749 188.758C37.3357 188.927 37.2635 189.087 37.1623 189.229C37.0612 189.371 36.9332 189.491 36.7856 189.583C36.638 189.675 36.4736 189.737 36.302 189.766L18.746 192.697C18.6733 192.709 18.5997 192.715 18.526 192.715Z" fill="black"/>
<path d="M18.639 202.196C18.3033 202.195 17.9803 202.067 17.7355 201.838C17.4906 201.608 17.342 201.294 17.3198 200.959C17.2976 200.624 17.4034 200.293 17.6158 200.033C17.8282 199.773 18.1313 199.603 18.464 199.558L39.002 196.797C39.3472 196.757 39.6944 196.853 39.9689 197.067C40.2434 197.28 40.4232 197.592 40.4695 197.936C40.5158 198.281 40.4249 198.63 40.2164 198.908C40.0079 199.186 39.6986 199.371 39.355 199.423L18.817 202.184C18.758 202.192 18.6985 202.196 18.639 202.196Z" fill="black"/>
<path d="M20.4509 211.486C20.1139 211.485 19.7899 211.356 19.5448 211.125C19.2997 210.893 19.1521 210.577 19.1318 210.24C19.1115 209.904 19.2202 209.573 19.4357 209.313C19.6513 209.054 19.9575 208.887 20.2919 208.846L41.14 206.294C41.3141 206.27 41.4914 206.28 41.6614 206.325C41.8314 206.37 41.9907 206.448 42.1301 206.556C42.2696 206.663 42.3862 206.797 42.4734 206.949C42.5606 207.102 42.6165 207.271 42.6379 207.445C42.6593 207.62 42.6457 207.797 42.5979 207.966C42.5502 208.135 42.4692 208.293 42.3598 208.431C42.2503 208.569 42.1145 208.683 41.9604 208.768C41.8063 208.852 41.6369 208.905 41.462 208.924L20.614 211.476C20.5599 211.482 20.5054 211.486 20.4509 211.486Z" fill="black"/>
<path d="M23.7567 221.618C23.415 221.619 23.0862 221.487 22.839 221.251C22.5918 221.015 22.4453 220.693 22.43 220.352C22.4148 220.011 22.5321 219.676 22.7573 219.419C22.9825 219.162 23.2983 219.002 23.6388 218.973L42.2777 217.291C42.4524 217.272 42.629 217.289 42.7973 217.34C42.9655 217.39 43.122 217.474 43.2577 217.585C43.3934 217.697 43.5055 217.834 43.5876 217.989C43.6697 218.144 43.7201 218.314 43.7359 218.489C43.7517 218.664 43.7325 218.841 43.6795 219.008C43.6266 219.176 43.5408 219.331 43.4272 219.465C43.3137 219.599 43.1746 219.709 43.0182 219.789C42.8617 219.869 42.6909 219.917 42.5157 219.93L23.8767 221.612C23.8337 221.616 23.7967 221.618 23.7567 221.618Z" fill="black"/>
<g opacity="0.35">
<g opacity="0.35">
<g opacity="0.35">
<g opacity="0.35">
<path opacity="0.35" d="M36.723 230.948H33.864C32.2197 230.949 30.6102 230.474 29.2303 229.58C27.8505 228.686 26.7593 227.41 26.089 225.909C24.981 223.422 23.635 220.17 22.375 216.485C23.3628 217.965 24.7112 219.17 26.293 219.985C27.8749 220.8 29.6382 221.199 31.417 221.145H34.828C39.683 220.304 41.509 215.545 41.581 209.302C43.22 219.834 42.764 229.699 36.723 230.948Z" fill="black"/>
</g>
</g>
</g>
</g>
<path d="M36.7237 232.272H33.8617C31.9618 232.272 30.1024 231.722 28.5081 230.688C26.9138 229.655 25.6526 228.182 24.8767 226.448C21.8437 219.776 19.5533 212.792 18.0467 205.62C16.1027 195.639 16.8117 187.597 20.1567 181.72C20.3887 181.311 20.6407 180.912 20.9037 180.534C20.9602 180.453 21.0257 180.378 21.0987 180.312C21.2377 180.185 24.5607 177.212 28.5897 177.87C31.2167 178.299 33.4467 180.124 35.2167 183.295C37.1427 186.744 40.0907 195.042 41.9997 204.231C43.5617 211.75 44.8627 221.94 42.1867 227.789C41.7548 228.903 41.054 229.893 40.1467 230.671C39.2394 231.449 38.1539 231.99 36.9867 232.247C36.9001 232.264 36.812 232.272 36.7237 232.272ZM22.9817 182.182C22.7987 182.452 22.6237 182.734 22.4597 183.023C19.4367 188.338 18.8267 195.769 20.6467 205.11C22.1147 212.085 24.3444 218.877 27.2957 225.365C27.8627 226.632 28.7844 227.708 29.9493 228.463C31.1142 229.217 32.4726 229.619 33.8607 229.619H36.5787C37.3086 229.422 37.9802 229.052 38.5372 228.54C39.0941 228.029 39.5199 227.391 39.7787 226.681C41.6327 222.627 41.5007 214.843 39.4067 204.764C37.5717 195.932 34.6867 187.774 32.9067 184.581C31.5537 182.158 29.9647 180.781 28.1817 180.481C25.7377 180.082 23.4847 181.774 22.9817 182.182Z" fill="black"/>
<path d="M69.0291 229.738C68.8219 229.737 68.6184 229.684 68.438 229.582C68.2577 229.48 68.1066 229.333 67.9994 229.156C67.8922 228.979 67.8324 228.777 67.8258 228.57C67.8193 228.363 67.8663 228.158 67.9622 227.974C72.9942 218.359 73.0681 207.547 68.1831 195.836C65.9215 190.445 62.8844 185.413 59.1681 180.9C58.9566 180.66 58.8491 180.346 58.8691 180.027C58.889 179.708 59.0349 179.41 59.2747 179.199C59.5145 178.987 59.8284 178.879 60.1475 178.899C60.4666 178.919 60.7646 179.065 60.9761 179.305C64.8632 183.988 68.0313 189.224 70.3761 194.84C72.5582 199.888 73.8314 205.282 74.1371 210.773C74.4507 217.13 73.0546 223.455 70.0942 229.09C69.993 229.285 69.8402 229.449 69.6524 229.563C69.4646 229.677 69.2489 229.738 69.0291 229.738Z" fill="black"/>
<path d="M151.633 229.739C151.413 229.74 151.196 229.68 151.008 229.566C150.819 229.452 150.666 229.288 150.564 229.093C147.604 223.458 146.208 217.133 146.522 210.776C146.828 205.285 148.101 199.891 150.283 194.843C152.628 189.227 155.796 183.991 159.683 179.308C159.894 179.068 160.192 178.922 160.511 178.903C160.83 178.883 161.144 178.99 161.384 179.202C161.624 179.413 161.769 179.711 161.789 180.03C161.809 180.349 161.701 180.663 161.49 180.903C157.774 185.416 154.737 190.448 152.475 195.839C147.59 207.549 147.664 218.362 152.696 227.977C152.792 228.16 152.839 228.366 152.832 228.573C152.826 228.78 152.766 228.982 152.659 229.159C152.551 229.336 152.4 229.483 152.22 229.585C152.04 229.687 151.836 229.741 151.629 229.741L151.633 229.739Z" fill="black"/>
<g opacity="0.35">
<g opacity="0.35">
<g opacity="0.35">
<g opacity="0.35">
<path opacity="0.35" d="M150.02 113.958C148.64 115.538 147.18 117.047 145.645 118.477C142.09 121.808 138.119 124.665 133.831 126.977C126.717 130.854 118.76 132.925 110.659 133.009C102.558 133.092 94.5602 131.185 87.3682 127.455C82.6968 125.043 78.3848 121.992 74.5571 118.388C72.6018 116.554 70.7648 114.598 69.0571 112.531C72.1781 111.567 75.2801 110.45 78.1201 109.345C81.7866 100.49 85.9386 91.8431 90.5571 83.4449H129.608C133.573 90.6399 137.072 97.83 140.157 104.913C143.103 106.631 146.489 109.861 150.02 113.958Z" fill="black"/>
</g>
</g>
</g>
</g>
<path d="M169.719 75.1641C169.557 75.1816 169.394 75.167 169.238 75.1212C169.081 75.0753 168.936 74.9991 168.809 74.8969C168.682 74.7947 168.577 74.6686 168.499 74.5257C168.421 74.3828 168.372 74.2259 168.355 74.064L164.543 38.5961C164.526 38.4343 164.541 38.2707 164.586 38.1146C164.632 37.9584 164.709 37.8129 164.811 37.6862C164.913 37.5596 165.039 37.4543 165.182 37.3764C165.325 37.2985 165.482 37.2494 165.643 37.2321C167.34 37.0498 169.055 37.2034 170.692 37.6841C172.329 38.1649 173.856 38.9634 175.184 40.0341C176.513 41.1048 177.617 42.4266 178.435 43.9241C179.252 45.4217 179.767 47.0656 179.949 48.762L181.249 60.8571C181.432 62.5536 181.278 64.2694 180.798 65.9065C180.317 67.5437 179.518 69.0702 178.448 70.3987C177.377 71.7273 176.055 72.832 174.557 73.6496C173.06 74.4672 171.416 74.9819 169.719 75.1641Z" fill="white"/>
<path d="M169.585 75.4759C169.205 75.4752 168.838 75.3341 168.555 75.0796C168.273 74.8251 168.094 74.4751 168.053 74.0969L164.242 38.6289C164.199 38.2218 164.318 37.814 164.575 37.4952C164.832 37.1764 165.205 36.9727 165.612 36.9289C169.118 36.5561 172.628 37.5891 175.373 39.8013C178.118 42.0134 179.874 45.2242 180.254 48.729L181.554 60.824C181.93 64.3302 180.899 67.8424 178.686 70.5881C176.473 73.3339 173.26 75.0883 169.754 75.4659L169.721 75.166L169.754 75.4659C169.698 75.4723 169.642 75.4757 169.585 75.4759ZM167.042 37.463C166.586 37.4629 166.131 37.4873 165.677 37.536C165.431 37.5624 165.206 37.6855 165.051 37.878C164.895 38.0706 164.823 38.317 164.849 38.563L168.661 74.031C168.688 74.277 168.811 74.5023 169.003 74.6576C169.196 74.8129 169.442 74.8853 169.688 74.859C171.345 74.681 172.95 74.1784 174.412 73.38C175.875 72.5816 177.165 71.503 178.211 70.2058C179.256 68.9086 180.036 67.4182 180.506 65.8196C180.975 64.221 181.125 62.5455 180.947 60.8889L179.647 48.7939C179.309 45.6851 177.836 42.8102 175.511 40.72C173.185 38.6297 170.169 37.471 167.042 37.4659V37.463Z" fill="black"/>
<g opacity="0.35">
<g opacity="0.35">
<g opacity="0.35">
<g opacity="0.35">
<path opacity="0.35" d="M180.64 55.187L181.251 60.859C181.618 64.2852 180.609 67.7167 178.447 70.3995C176.285 73.0824 173.146 74.7972 169.72 75.167C169.393 75.2012 169.066 75.1047 168.811 74.8986C168.555 74.6924 168.392 74.3934 168.356 74.067L167.34 64.639C167.46 64.8454 167.637 65.0127 167.85 65.1208C168.063 65.229 168.303 65.2736 168.54 65.249L169.381 65.156C172.06 64.8683 174.583 63.7541 176.601 61.9678C178.618 60.1815 180.03 57.8117 180.64 55.187Z" fill="black"/>
</g>
</g>
</g>
</g>
<path d="M169.582 76.8709C168.858 76.8694 168.16 76.6009 167.622 76.1167C167.084 75.6325 166.744 74.9666 166.666 74.2469L162.855 38.7789C162.772 38.0042 163 37.2282 163.489 36.6216C163.978 36.0149 164.687 35.6272 165.462 35.5439C169.335 35.1324 173.214 36.274 176.247 38.7182C179.279 41.1624 181.218 44.7098 181.639 48.582L182.939 60.677C183.355 64.5511 182.216 68.4318 179.77 71.4655C177.325 74.4993 173.775 76.4376 169.901 76.854C169.795 76.8653 169.689 76.871 169.582 76.8709ZM166.286 38.88L169.997 73.412C172.881 72.9823 175.486 71.4543 177.269 69.1477C179.051 66.841 179.873 63.9345 179.561 61.036L178.261 48.941C177.946 46.0443 176.524 43.3811 174.293 41.5072C172.062 39.6332 169.193 38.6931 166.285 38.8829L166.286 38.88Z" fill="black"/>
<path d="M48.5733 49.8139C48.735 49.7966 48.8987 49.8114 49.0548 49.8573C49.2109 49.9032 49.3564 49.9794 49.483 50.0815C49.6097 50.1836 49.7151 50.3098 49.793 50.4526C49.8709 50.5954 49.9199 50.7522 49.9373 50.914L53.7483 86.3819C53.7658 86.5437 53.7512 86.7074 53.7053 86.8636C53.6595 87.0198 53.5833 87.1654 53.4811 87.2921C53.3789 87.4188 53.2528 87.524 53.1099 87.6019C52.967 87.6798 52.81 87.7287 52.6482 87.7459C50.9518 87.9283 49.2361 87.7747 47.599 87.2939C45.962 86.8131 44.4356 86.0146 43.1072 84.9439C41.7787 83.8733 40.6743 82.5515 39.8567 81.0539C39.0391 79.5564 38.5245 77.9125 38.3423 76.216L37.0423 64.1209C36.8598 62.4244 37.0134 60.7085 37.4942 59.0712C37.9749 57.434 38.7735 55.9075 39.8443 54.5789C40.915 53.2504 42.237 52.1458 43.7348 51.3282C45.2325 50.5106 46.8766 49.996 48.5733 49.8139Z" fill="white"/>
<path d="M51.2511 88.125C47.973 88.1185 44.8124 86.9032 42.3746 84.7115C39.9369 82.5199 38.3931 79.5059 38.0391 76.2469L36.7392 64.1519C36.3666 60.6463 37.3996 57.1361 39.6117 54.3912C41.8238 51.6463 45.0344 49.8909 48.5391 49.51L48.5711 49.8099L48.5391 49.51C48.9461 49.4668 49.3536 49.5868 49.6723 49.8436C49.9909 50.1004 50.1948 50.4731 50.2392 50.88L54.0501 86.348C54.0932 86.755 53.9733 87.1625 53.7164 87.4812C53.4596 87.7998 53.0869 88.0036 52.6801 88.0479C52.2054 88.099 51.7285 88.1247 51.2511 88.125ZM48.7061 50.1119C48.6727 50.1118 48.6393 50.1134 48.6061 50.1169C45.2619 50.4797 42.1982 52.1545 40.0874 54.7735C37.9766 57.3926 36.9911 60.7421 37.3471 64.087L38.6471 76.182C39.0099 79.5261 40.6845 82.5898 43.3036 84.7006C45.9227 86.8115 49.2722 87.797 52.6171 87.441C52.8631 87.4143 53.0885 87.291 53.2438 87.0982C53.399 86.9055 53.4714 86.659 53.4451 86.4129L49.634 50.9449C49.6087 50.7164 49.5002 50.5053 49.329 50.3518C49.1578 50.1983 48.936 50.1133 48.7061 50.113V50.1119Z" fill="black"/>
<g opacity="0.35">
<g opacity="0.35">
<g opacity="0.35">
<g opacity="0.35">
<path opacity="0.35" d="M52.6943 76.5409L53.7502 86.3809C53.7847 86.7075 53.6884 87.0345 53.4822 87.2902C53.276 87.5458 52.9768 87.7094 52.6503 87.7449C50.9544 87.927 49.2392 87.7734 47.6027 87.2926C45.9661 86.8118 44.4403 86.0134 43.1124 84.9429C41.7845 83.8724 40.6805 82.5508 39.8634 81.0536C39.0463 79.5564 38.5321 77.9129 38.3502 76.2169L37.8022 71.1169C39.0707 73.2682 40.932 75.0084 43.1635 76.1298C45.3949 77.2511 47.9021 77.706 50.3853 77.4399L51.6793 77.3009C51.9008 77.2761 52.1117 77.1926 52.2902 77.059C52.4686 76.9254 52.6081 76.7465 52.6943 76.5409Z" fill="black"/>
</g>
</g>
</g>
</g>
<path d="M51.252 89.519C47.6298 89.5126 44.1372 88.1702 41.4432 85.7487C38.7492 83.3273 37.0433 79.997 36.6521 76.3959L35.352 64.301C34.9402 60.4277 36.0817 56.5492 38.526 53.5164C40.9702 50.4837 44.5176 48.5444 48.39 48.124C49.1644 48.0418 49.9399 48.2702 50.5463 48.7588C51.1528 49.2475 51.5407 49.9568 51.6251 50.731L55.436 86.1989C55.5184 86.9734 55.2902 87.7491 54.8015 88.3555C54.3127 88.962 53.6034 89.3499 52.8291 89.434C52.3053 89.4904 51.7788 89.5187 51.252 89.519ZM48.299 51.5619C45.4171 51.9946 42.8137 53.5234 41.0317 55.8293C39.2497 58.1352 38.427 61.0401 38.7351 63.9379L40.035 76.033C40.3495 78.9303 41.7706 81.5942 44.0018 83.4689C46.233 85.3437 49.102 86.2844 52.0101 86.0949L48.299 51.5619Z" fill="black"/>
<path d="M109.154 123.276C142.726 123.276 169.942 96.0602 169.942 62.4879C169.942 28.9157 142.726 1.69995 109.154 1.69995C75.5819 1.69995 48.3662 28.9157 48.3662 62.4879C48.3662 96.0602 75.5819 123.276 109.154 123.276Z" fill="white"/>
<path d="M109.095 123.583C92.902 123.578 77.366 117.18 65.8666 105.779C54.3672 94.3782 47.8348 78.8978 47.6904 62.7055C47.5461 46.5132 53.8014 30.919 65.0957 19.3151C76.39 7.7112 91.8095 1.03647 108 0.74301C124.19 0.449552 139.841 6.56111 151.549 17.7481C163.256 28.935 170.072 44.2924 170.515 60.4793C170.958 76.6662 164.99 92.373 153.912 104.183C142.833 115.993 127.539 122.95 111.357 123.542C110.602 123.569 109.848 123.583 109.095 123.583ZM109.183 2.00497C108.448 2.00497 107.714 2.01795 106.974 2.04495C91.1351 2.6139 76.1524 9.37723 65.249 20.8799C54.3457 32.3826 48.3929 47.7055 48.6715 63.5522C48.9501 79.3988 55.4377 94.503 66.7387 105.615C78.0396 116.728 93.2509 122.96 109.1 122.972C109.843 122.972 110.588 122.959 111.335 122.932C127.176 122.363 142.161 115.598 153.064 104.092C163.968 92.5867 169.919 77.2606 169.637 61.4118C169.355 45.563 162.862 30.4583 151.556 19.3481C140.25 8.23781 125.034 2.01011 109.183 2.00497Z" fill="black"/>
<g opacity="0.35">
<g opacity="0.35">
<g opacity="0.35">
<g opacity="0.35">
<path opacity="0.35" d="M169.017 51.9089C170.467 60.1195 170.212 68.5406 168.269 76.6486C166.326 84.7565 162.735 92.3779 157.721 99.0392C152.707 105.7 146.376 111.259 139.122 115.369C131.868 119.48 123.846 122.054 115.555 122.932C107.263 123.81 98.8802 122.973 90.9262 120.473C82.9723 117.973 75.6176 113.864 69.3194 108.4C63.0213 102.937 57.9143 96.2364 54.316 88.7152C50.7177 81.1941 48.7051 73.0131 48.4032 64.681C48.3682 63.716 48.3552 62.75 48.3672 61.797C51.0043 76.7082 59.1116 90.0983 71.102 99.3464C83.0925 108.595 98.1027 113.035 113.195 111.798C128.287 110.561 142.374 103.736 152.698 92.6591C163.023 81.5821 168.842 67.0505 169.016 51.9089H169.017Z" fill="black"/>
</g>
</g>
</g>
</g>
<path d="M109.094 124.977C92.5331 124.973 76.644 118.429 64.883 106.77C53.122 95.1108 46.4408 79.2792 46.2926 62.7192C46.1444 46.1591 52.5412 30.2104 64.0916 18.3426C75.642 6.47476 91.4116 -0.352055 107.97 -0.652719C124.528 -0.953383 140.534 5.29645 152.508 16.7371C164.482 28.1778 171.453 43.8837 171.907 60.4382C172.36 76.9927 166.258 93.0565 154.928 105.135C143.598 117.213 127.956 124.329 111.407 124.935C110.635 124.963 109.864 124.977 109.094 124.977ZM109.182 3.39898C108.464 3.39898 107.748 3.41192 107.024 3.43792C91.5495 3.99305 76.9114 10.6002 66.2587 21.8379C55.6061 33.0756 49.7901 48.0457 50.0623 63.5276C50.3345 79.0096 56.673 93.766 67.7141 104.622C78.7551 115.479 93.6166 121.567 109.101 121.578C109.827 121.578 110.555 121.565 111.284 121.539C126.755 120.977 141.388 114.365 152.035 103.126C162.682 91.8866 168.493 76.9179 168.217 61.4388C167.942 45.9597 161.603 31.2068 150.564 20.3531C139.524 9.49946 124.665 3.41201 109.184 3.39995L109.182 3.39898Z" fill="black"/>
<path d="M169.764 61.8639C170.345 73.3791 167.26 84.782 160.953 94.434C156.359 101.528 136.646 114.543 111.559 116.053C88.2982 117.453 66.4892 106.131 61.1942 99.542C53.9343 90.5846 49.701 79.5564 49.1023 68.042C47.4923 36.605 73.8342 22.189 107.156 20.483C140.478 18.777 168.154 30.4269 169.764 61.8639Z" fill="#030303"/>
<path d="M107.523 117.337C97.8366 117.25 88.2471 115.4 79.2231 111.879C70.7671 108.618 63.335 104.061 60.288 100.27C52.8712 91.1233 48.5477 79.8592 47.94 68.099C47.4337 60.8846 48.7465 53.6584 51.758 47.083C54.6449 41.1408 58.971 36.0142 64.3431 32.169C74.5581 24.669 89.343 20.223 107.101 19.313C124.859 18.403 140.021 21.313 150.948 27.734C156.685 31.0102 161.511 35.668 164.99 41.284C168.657 47.5174 170.702 54.5716 170.935 61.8C171.531 73.5611 168.38 85.2078 161.935 95.064C159.235 99.226 152.546 104.327 144.466 108.377C134.224 113.493 123.058 116.499 111.631 117.215C110.244 117.301 108.874 117.342 107.523 117.337ZM113.366 21.485C111.355 21.485 109.305 21.5383 107.216 21.645C89.916 22.531 75.567 26.821 65.721 34.051C54.728 42.124 49.5291 53.539 50.2691 67.979C50.8526 79.2483 54.9967 90.0418 62.105 98.806C64.237 101.459 70.219 105.906 80.06 109.699C90.0537 113.625 100.765 115.391 111.49 114.882C122.601 114.185 133.459 111.263 143.419 106.288C152.668 101.653 158.119 96.66 159.974 93.794C166.15 84.3495 169.17 73.189 168.599 61.919C167.86 47.479 161.522 36.655 149.762 29.747C140.5 24.313 128.006 21.49 113.366 21.49V21.485Z" fill="black"/>
<path d="M157.67 59.5936C158.428 53.7008 155.582 48.4779 151.313 47.928C147.043 47.378 142.966 51.7093 142.207 57.6021C141.448 63.4949 144.294 68.7178 148.564 69.2677C152.834 69.8176 156.911 65.4864 157.67 59.5936Z" fill="white"/>
<path d="M145.578 81.4838C146.297 78.8531 145.049 76.2205 142.792 75.6038C140.535 74.987 138.122 76.6197 137.403 79.2505C136.685 81.8813 137.932 84.5139 140.189 85.1306C142.447 85.7473 144.859 84.1146 145.578 81.4838Z" fill="white"/>
<g opacity="0.35">
<g opacity="0.35">
<g opacity="0.35">
<g opacity="0.35">
<path opacity="0.35" d="M156.529 33.137C164.265 39.797 169.116 49.2369 169.764 61.8619C170.343 73.377 167.259 84.7796 160.955 94.433C156.355 101.527 136.645 114.541 111.555 116.054C103.077 116.492 94.5868 115.486 86.4458 113.081C117.246 110.563 141.246 94.6 146.946 85.801C154.95 73.5519 158.865 59.08 158.127 44.4659C157.947 40.6482 157.412 36.8555 156.529 33.137Z" fill="#111A28"/>
</g>
</g>
</g>
</g>
<path d="M52.2731 42.6389C51.9781 42.6386 51.6887 42.5584 51.4355 42.4069C51.1823 42.2553 50.9749 42.0381 50.8351 41.7782C50.6954 41.5183 50.6286 41.2255 50.6418 40.9307C50.655 40.636 50.7477 40.3503 50.9101 40.104C53.5005 35.8797 56.7303 32.0825 60.4842 28.8479C64.3926 25.4931 68.7266 22.6687 73.3741 20.448C78.3339 18.078 83.536 16.2523 88.8891 15.0029C94.6429 13.6558 100.507 12.835 106.41 12.5509C112.246 12.2375 118.098 12.4437 123.897 13.1669C129.333 13.8394 134.684 15.0768 139.864 16.859C144.72 18.5261 149.343 20.8058 153.621 23.643C157.69 26.3475 161.318 29.6611 164.38 33.4679C164.653 33.7699 164.804 34.163 164.803 34.5702C164.801 34.9774 164.648 35.3696 164.373 35.6698C164.098 35.97 163.721 36.1567 163.315 36.1933C162.909 36.23 162.505 36.1139 162.18 35.8679L162.009 35.7399L161.88 35.5759C150.937 21.7829 130.78 14.5819 106.58 15.8209C82.2471 17.0679 62.9671 26.5539 53.6801 41.8479L53.6381 41.9179L53.5832 41.992C53.4301 42.1941 53.232 42.3578 53.0046 42.4701C52.7772 42.5824 52.5267 42.6402 52.2731 42.6389Z" fill="black"/>
<path d="M63.6089 86.051C63.6089 86.051 52.2839 55.5369 68.3649 42.3219C84.4459 29.1069 108.495 27.922 108.012 29.497C108.012 29.497 81.7209 37.3049 72.3819 58.8839C65.1809 75.5249 63.6089 86.051 63.6089 86.051Z" fill="white"/>
<path d="M174.763 190.55C174.727 190.819 174.677 191.105 174.623 191.382C174.569 191.659 174.509 191.938 174.45 192.216C174.327 192.771 174.192 193.323 174.05 193.874C173.77 194.974 173.441 196.074 173.131 197.169C172.821 198.264 172.522 199.369 172.231 200.482L172.021 201.317C171.946 201.596 171.882 201.876 171.814 202.157L171.714 202.579L171.662 202.791L171.616 203.003C171.556 203.286 171.489 203.571 171.416 203.858V203.868C171.405 203.91 171.38 203.947 171.345 203.974C171.31 204 171.268 204.014 171.224 204.012C171.181 204.011 171.138 203.995 171.105 203.967C171.072 203.939 171.049 203.901 171.04 203.858C170.92 203.273 170.831 202.683 170.775 202.089L170.729 201.643C170.716 201.494 170.711 201.343 170.701 201.198C170.686 200.898 170.669 200.598 170.661 200.305C170.639 199.118 170.678 197.93 170.775 196.747C170.866 195.569 171.022 194.396 171.243 193.236C171.356 192.657 171.488 192.083 171.643 191.515C171.722 191.231 171.806 190.948 171.9 190.667C171.994 190.386 172.092 190.111 172.213 189.822C172.337 189.523 172.566 189.279 172.857 189.137C173.147 188.994 173.48 188.962 173.792 189.046C174.105 189.13 174.376 189.325 174.555 189.595C174.735 189.864 174.81 190.19 174.767 190.511L174.763 190.55Z" fill="black"/>
<path d="M48.073 189.823C48.193 190.112 48.292 190.385 48.386 190.668C48.48 190.951 48.563 191.232 48.642 191.516C48.8 192.084 48.933 192.658 49.042 193.237C49.2629 194.398 49.4191 195.57 49.51 196.748C49.6072 197.931 49.6448 199.119 49.6229 200.306C49.6149 200.606 49.598 200.906 49.583 201.199C49.573 201.348 49.5679 201.499 49.5549 201.644L49.509 202.09C49.4527 202.684 49.3642 203.274 49.244 203.859C49.2353 203.902 49.2124 203.94 49.1789 203.968C49.1455 203.996 49.1036 204.012 49.0599 204.013C49.0163 204.015 48.9736 204.001 48.9387 203.975C48.9038 203.949 48.879 203.911 48.868 203.869V203.859C48.7967 203.572 48.73 203.287 48.668 203.004L48.6219 202.792L48.5699 202.58L48.47 202.157C48.402 201.876 48.3379 201.597 48.2629 201.317L48.053 200.482C47.762 199.371 47.4589 198.268 47.1529 197.169C46.8469 196.07 46.515 194.977 46.234 193.874C46.092 193.323 45.957 192.774 45.834 192.216C45.775 191.938 45.714 191.661 45.661 191.381C45.608 191.101 45.561 190.818 45.521 190.549V190.513C45.4782 190.192 45.5534 189.867 45.7325 189.598C45.9117 189.329 46.1825 189.134 46.4947 189.049C46.8069 188.965 47.1392 188.996 47.4297 189.138C47.7202 189.281 47.9492 189.524 48.074 189.822L48.073 189.823Z" fill="black"/>
<path d="M53.7553 224.484H166.924C167.89 224.484 168.817 224.868 169.5 225.551C170.183 226.234 170.566 227.16 170.566 228.126C170.566 229.802 169.9 231.41 168.715 232.596C167.529 233.781 165.922 234.447 164.245 234.447H56.4343C54.7578 234.447 53.1501 233.781 51.9647 232.596C50.7792 231.41 50.1133 229.802 50.1133 228.126V228.126C50.1133 227.16 50.497 226.234 51.18 225.551C51.863 224.868 52.7894 224.484 53.7553 224.484V224.484Z" fill="#3DF9D3"/>
<g opacity="0.3">
<g opacity="0.3">
<g opacity="0.3">
<g opacity="0.3">
<path opacity="0.3" d="M170.564 228.126C170.564 228.797 170.457 229.464 170.247 230.102C169.962 229.459 169.496 228.914 168.906 228.531C168.317 228.148 167.628 227.944 166.925 227.945H53.7573C53.0542 227.946 52.3663 228.15 51.7764 228.533C51.1864 228.916 50.7193 229.46 50.4313 230.102C50.2211 229.464 50.1141 228.797 50.1143 228.126C50.1153 227.16 50.4996 226.234 51.1827 225.55C51.8659 224.867 52.7922 224.483 53.7583 224.482H166.926C167.404 224.482 167.878 224.577 168.32 224.76C168.761 224.943 169.162 225.212 169.5 225.55C169.838 225.889 170.106 226.29 170.289 226.732C170.471 227.174 170.565 227.648 170.564 228.126Z" fill="white"/>
</g>
</g>
</g>
</g>
<g opacity="0.35">
<g opacity="0.35">
<g opacity="0.35">
<g opacity="0.35">
<path opacity="0.35" d="M170.564 228.125C170.563 229.8 169.897 231.407 168.712 232.592C167.527 233.777 165.921 234.443 164.245 234.444H56.4363C55.6062 234.444 54.7842 234.281 54.0172 233.964C53.2502 233.646 52.5532 233.181 51.9661 232.594C51.3789 232.007 50.9131 231.311 50.5952 230.544C50.2773 229.777 50.1136 228.955 50.1133 228.125C50.1108 227.476 50.2836 226.839 50.6133 226.281C51.098 227.424 51.9084 228.399 52.9436 229.084C53.9788 229.769 55.1928 230.134 56.4342 230.134H164.246C165.487 230.133 166.7 229.768 167.734 229.082C168.769 228.397 169.578 227.423 170.063 226.281C170.393 226.839 170.566 227.476 170.564 228.125Z" fill="black"/>
</g>
</g>
</g>
</g>
<path d="M164.245 236.056H56.4343C54.3325 236.054 52.3174 235.218 50.8311 233.732C49.3448 232.246 48.5087 230.231 48.5063 228.129C48.5079 226.737 49.0615 225.403 50.0455 224.419C51.0296 223.436 52.3637 222.882 53.7552 222.881H166.928C168.32 222.882 169.654 223.436 170.637 224.42C171.621 225.404 172.175 226.738 172.176 228.129C172.174 230.231 171.337 232.247 169.85 233.733C168.364 235.219 166.348 236.055 164.245 236.056ZM53.7552 226.094C53.2157 226.095 52.6984 226.309 52.3169 226.691C51.9354 227.072 51.7209 227.589 51.7203 228.129C51.7217 229.379 52.2187 230.577 53.1024 231.461C53.9862 232.344 55.1845 232.842 56.4343 232.843H164.245C165.495 232.842 166.693 232.344 167.577 231.461C168.461 230.577 168.958 229.379 168.959 228.129C168.959 227.589 168.744 227.072 168.363 226.691C167.981 226.309 167.464 226.095 166.924 226.094H53.7552Z" fill="black"/>
<path d="M176.859 153.321L166.314 224.481H54.3669L53.9849 221.906L43.8179 153.321C43.7396 152.791 43.7764 152.251 43.9258 151.736C44.0752 151.222 44.3336 150.745 44.6836 150.34C45.0336 149.934 45.4668 149.609 45.9539 149.386C46.4409 149.163 46.9702 149.047 47.5059 149.047H173.171C173.707 149.047 174.236 149.162 174.723 149.385C175.211 149.608 175.644 149.933 175.994 150.339C176.344 150.745 176.602 151.221 176.752 151.736C176.901 152.25 176.938 152.791 176.859 153.321Z" fill="#FF66AC"/>
<path d="M176.859 153.321L166.314 224.481H54.3669L53.9849 221.906L43.8179 153.321C43.7396 152.791 43.7764 152.251 43.9258 151.736C44.0752 151.222 44.3336 150.745 44.6836 150.34C45.0336 149.934 45.4668 149.609 45.9539 149.386C46.4409 149.163 46.9702 149.047 47.5059 149.047H173.171C173.707 149.047 174.236 149.162 174.723 149.385C175.211 149.608 175.644 149.933 175.994 150.339C176.344 150.745 176.602 151.221 176.752 151.736C176.901 152.25 176.938 152.791 176.859 153.321Z" fill="#3DF9D3"/>
<g opacity="0.5">
<g opacity="0.5">
<g opacity="0.5">
<g opacity="0.5">
<path opacity="0.5" d="M47.793 157.738C47.7147 157.208 47.7515 156.668 47.9009 156.153C48.0503 155.639 48.3087 155.162 48.6587 154.757C49.0087 154.351 49.4418 154.026 49.9288 153.803C50.4158 153.58 50.9453 153.464 51.481 153.464H176.841L176.862 153.322C176.941 152.792 176.904 152.251 176.755 151.737C176.605 151.222 176.347 150.746 175.997 150.34C175.647 149.934 175.214 149.609 174.726 149.386C174.239 149.163 173.71 149.048 173.174 149.048H47.5059C46.9702 149.048 46.4409 149.164 45.9539 149.387C45.4668 149.61 45.0336 149.935 44.6836 150.341C44.3336 150.746 44.0752 151.223 43.9258 151.737C43.7764 152.251 43.7396 152.792 43.8179 153.322L53.9849 221.907L54.3669 224.482H57.6869L47.793 157.738Z" fill="white"/>
</g>
</g>
</g>
</g>
<g opacity="0.35">
<g opacity="0.35">
<g opacity="0.35">
<g opacity="0.35">
<path opacity="0.35" d="M169.638 149.047H160.818C164.164 161.305 162.318 188.986 140.732 203.452C113.632 221.612 64.8001 221.497 54.4321 221.906L54.8142 224.481H162.786L173.331 153.321C173.41 152.791 173.373 152.249 173.224 151.734C173.074 151.219 172.815 150.743 172.465 150.337C172.114 149.931 171.68 149.606 171.192 149.384C170.704 149.161 170.174 149.046 169.638 149.047Z" fill="black"/>
</g>
</g>
</g>
</g>
<path d="M167.698 226.091H52.9801L42.229 153.557C42.1166 152.799 42.169 152.025 42.3826 151.289C42.5961 150.553 42.9659 149.871 43.4666 149.291C43.9673 148.71 44.5872 148.245 45.2841 147.925C45.981 147.606 46.7385 147.441 47.505 147.441H173.172C173.939 147.441 174.696 147.606 175.393 147.925C176.09 148.245 176.71 148.71 177.211 149.291C177.711 149.871 178.081 150.553 178.295 151.289C178.508 152.025 178.56 152.799 178.448 153.557L167.698 226.091ZM55.7531 222.877H164.925L175.269 153.085C175.314 152.783 175.293 152.476 175.208 152.183C175.123 151.89 174.976 151.619 174.776 151.388C174.577 151.157 174.33 150.972 174.053 150.846C173.775 150.719 173.474 150.654 173.169 150.654H47.5081C47.2031 150.654 46.9017 150.719 46.6243 150.846C46.3469 150.972 46.1002 151.157 45.9009 151.388C45.7016 151.619 45.5543 151.89 45.4693 152.183C45.3842 152.476 45.3634 152.783 45.4081 153.085L55.7531 222.877Z" fill="black"/>
<g opacity="0.3">
<g opacity="0.3">
<g opacity="0.3">
<g opacity="0.3">
<path opacity="0.3" d="M63.2779 207.857C59.0309 198.496 55.9389 182.516 56.6359 173.112C57.3329 163.708 62.787 166.585 64.478 178.632C68.976 210.692 65.1739 212.037 63.2779 207.857Z" fill="white"/>
</g>
</g>
</g>
</g>
<path d="M124.965 178.69C125.171 177.488 125.191 176.261 125.025 175.053C124.925 174.92 124.825 174.784 124.718 174.653C124.37 174.528 124.031 174.364 123.67 174.273C121.144 173.602 118.521 173.367 115.916 173.58C112.543 173.787 109.312 175.017 106.655 177.105C105.677 177.89 104.785 178.776 103.873 179.635C103.787 179.754 103.661 179.837 103.518 179.869C103.375 179.901 103.225 179.88 103.097 179.809C102.287 179.457 101.417 179.261 100.534 179.233C98.2347 179.177 95.9753 179.841 94.072 181.133C91.9923 182.526 90.1464 184.239 88.603 186.21C88.4399 186.362 88.3223 186.557 88.2631 186.772C88.2038 186.988 88.2053 187.215 88.2675 187.43C88.3296 187.644 88.4498 187.837 88.615 187.987C88.7802 188.138 88.9838 188.239 89.2031 188.281C89.8451 188.491 90.4881 188.697 91.1301 188.906C92.6688 189.404 94.2047 189.901 95.7381 190.396C95.7394 190.429 95.7374 190.463 95.7321 190.496C95.7198 190.529 95.7041 190.56 95.6851 190.59C95.5414 190.751 95.4319 190.94 95.3634 191.144C95.2949 191.349 95.2687 191.566 95.2865 191.781C95.3043 191.996 95.3656 192.205 95.4668 192.396C95.568 192.587 95.707 192.755 95.8751 192.89C95.9463 192.973 96.0131 193.06 96.0751 193.15C96.4291 193.615 96.7891 194.085 97.1641 194.569C96.6531 194.964 96.1501 195.299 95.7061 195.704C95.4699 195.92 95.2951 196.194 95.1991 196.499C95.138 196.73 95.1564 196.975 95.2515 197.194C95.3465 197.413 95.5127 197.594 95.723 197.707C95.9204 197.84 96.1546 197.907 96.3923 197.9C96.6301 197.892 96.8595 197.81 97.0481 197.665C97.5771 197.289 98.0821 196.881 98.6201 196.465C99.1281 197.135 99.6101 197.765 100.092 198.393C100.258 198.703 100.537 198.937 100.87 199.049C101.204 199.16 101.567 199.14 101.886 198.993C102.043 198.944 102.197 198.911 102.386 198.866C102.399 199.05 102.413 199.197 102.42 199.335C102.529 201.554 102.63 203.776 102.752 205.989C102.737 206.209 102.783 206.43 102.886 206.626C102.988 206.822 103.142 206.986 103.332 207.099C103.521 207.213 103.738 207.272 103.959 207.27C104.18 207.269 104.397 207.206 104.584 207.089C105.439 206.689 106.295 206.258 107.134 205.803C109.081 204.797 110.814 203.421 112.234 201.751C113.136 200.761 113.808 199.583 114.201 198.303C114.595 197.022 114.699 195.671 114.508 194.345C114.506 194.275 114.521 194.206 114.551 194.144C114.58 194.081 114.625 194.026 114.68 193.984C115.542 193.428 116.428 192.908 117.29 192.348C119.215 191.086 120.835 189.412 122.034 187.448C123.656 184.786 124.658 181.792 124.965 178.69ZM97.0061 188.29L91.4961 186.495C93.4511 184.418 95.5201 182.604 98.3051 181.838C99.422 181.512 100.61 181.523 101.721 181.869C100.162 183.999 98.5991 186.128 97.0061 188.292V188.29ZM111.947 197.42C111.472 198.819 110.656 200.077 109.572 201.08C108.226 202.333 106.705 203.383 105.056 204.199C104.956 202.159 104.856 200.162 104.756 198.207C107.267 197.23 109.722 196.277 112.191 195.318C112.265 196.029 112.181 196.747 111.947 197.422V197.42ZM121.219 183.759C120.457 185.669 119.306 187.4 117.839 188.841C116.662 189.921 115.358 190.853 113.955 191.616C110.158 193.672 106.144 195.298 101.986 196.464C101.906 196.504 101.815 196.511 101.729 196.486C101.644 196.46 101.572 196.403 101.527 196.326C101.238 195.915 100.914 195.52 100.608 195.115C100.584 195.073 100.565 195.028 100.552 194.981C100.657 194.896 100.771 194.812 100.885 194.724C103.248 192.91 105.622 191.102 107.985 189.284C108.125 189.194 108.244 189.077 108.336 188.939C108.428 188.8 108.49 188.645 108.519 188.481C108.547 188.318 108.542 188.151 108.503 187.989C108.463 187.828 108.391 187.677 108.29 187.545C108.189 187.413 108.062 187.304 107.917 187.224C107.772 187.144 107.612 187.094 107.446 187.079C107.281 187.064 107.115 187.083 106.957 187.136C106.8 187.188 106.655 187.273 106.532 187.384C105.11 188.469 103.69 189.555 102.273 190.643C101.215 191.452 100.166 192.258 99.0672 193.1C98.6892 192.608 98.3261 192.157 97.9981 191.684C97.9799 191.616 97.9774 191.544 97.9907 191.475C98.0041 191.406 98.0329 191.34 98.0751 191.284C99.3351 189.404 100.583 187.515 101.895 185.668C103.194 183.838 104.665 182.136 106.288 180.586C107.753 179.072 109.508 177.868 111.448 177.048C112.717 176.547 114.048 176.217 115.404 176.067C115.481 176.073 115.556 176.096 115.624 176.134C115.691 176.172 115.749 176.224 115.794 176.287C117.178 178.077 118.546 179.869 119.917 181.665C120.329 182.199 120.735 182.744 121.159 183.272C121.218 183.337 121.256 183.419 121.267 183.507C121.278 183.595 121.261 183.683 121.219 183.761V183.759ZM122.04 181.259C120.672 179.467 119.34 177.725 118 175.975C118 175.935 118.013 175.889 118.02 175.845C119.577 176.031 121.138 176.222 122.715 176.411C122.676 178.048 122.45 179.674 122.04 181.259Z" fill="black"/>
<path d="M121.16 183.272C120.735 182.744 120.329 182.199 119.918 181.665C118.547 179.865 117.179 178.077 115.795 176.287C115.75 176.224 115.692 176.172 115.624 176.134C115.557 176.096 115.482 176.073 115.405 176.067C114.049 176.217 112.718 176.547 111.449 177.048C109.509 177.869 107.754 179.072 106.289 180.586C104.666 182.136 103.195 183.838 101.896 185.668C100.585 187.515 99.336 189.405 98.076 191.284C98.0339 191.34 98.0052 191.406 97.9919 191.475C97.9786 191.544 97.9809 191.616 97.999 191.684C98.327 192.157 98.6911 192.607 99.0681 193.1C100.168 192.257 101.216 191.451 102.274 190.642C103.693 189.553 105.112 188.466 106.533 187.383C106.656 187.272 106.801 187.187 106.958 187.135C107.116 187.082 107.282 187.063 107.447 187.078C107.613 187.093 107.773 187.143 107.918 187.223C108.063 187.303 108.19 187.412 108.291 187.544C108.392 187.676 108.464 187.827 108.503 187.988C108.543 188.149 108.548 188.317 108.52 188.48C108.491 188.644 108.429 188.799 108.337 188.938C108.245 189.076 108.126 189.193 107.986 189.283C105.622 191.101 103.248 192.909 100.886 194.723C100.772 194.81 100.658 194.894 100.553 194.979C100.566 195.026 100.585 195.071 100.609 195.113C100.915 195.518 101.239 195.913 101.528 196.325C101.573 196.402 101.645 196.459 101.73 196.485C101.815 196.51 101.907 196.502 101.987 196.463C106.144 195.297 110.159 193.671 113.956 191.615C115.359 190.852 116.663 189.92 117.84 188.84C119.307 187.399 120.458 185.668 121.22 183.758C121.261 183.681 121.278 183.592 121.267 183.505C121.256 183.419 121.219 183.337 121.16 183.272ZM117.012 186.007C116.375 186.502 115.606 186.797 114.801 186.854C113.996 186.912 113.193 186.729 112.493 186.328C111.792 185.928 111.226 185.329 110.867 184.607C110.507 183.885 110.37 183.072 110.473 182.272C110.577 181.472 110.915 180.721 111.446 180.113C111.976 179.506 112.676 179.07 113.455 178.86C114.234 178.651 115.057 178.678 115.821 178.937C116.585 179.196 117.255 179.676 117.745 180.317C118.395 181.172 118.683 182.248 118.545 183.314C118.408 184.379 117.857 185.347 117.012 186.01V186.007Z" fill="white"/>
<path d="M122.04 181.258C120.672 179.469 119.34 177.724 118 175.974C118 175.932 118.013 175.889 118.019 175.844C119.576 176.032 121.137 176.222 122.719 176.411C122.679 178.047 122.451 179.673 122.04 181.258Z" fill="#3DF9D3"/>
<path d="M101.723 181.872L97.0071 188.295C95.2281 187.713 93.3861 187.114 91.4961 186.495C93.4531 184.415 95.52 182.6 98.307 181.837C99.4241 181.51 100.613 181.523 101.723 181.872Z" fill="#3DF9D3"/>
<path d="M109.571 201.086C108.226 202.34 106.704 203.391 105.055 204.205C104.954 202.166 104.854 200.169 104.755 198.214C107.266 197.238 109.721 196.286 112.192 195.324C112.264 196.033 112.182 196.749 111.951 197.424C111.477 198.825 110.658 200.084 109.571 201.086Z" fill="#3DF9D3"/>
<path d="M117.745 180.317C117.255 179.68 116.586 179.203 115.825 178.946C115.063 178.689 114.242 178.663 113.466 178.873C112.69 179.083 111.994 179.518 111.465 180.124C110.937 180.729 110.6 181.478 110.497 182.275C110.394 183.073 110.531 183.882 110.888 184.602C111.246 185.322 111.809 185.92 112.507 186.319C113.204 186.719 114.005 186.902 114.807 186.847C115.609 186.791 116.376 186.499 117.012 186.007C117.861 185.348 118.415 184.379 118.553 183.313C118.69 182.247 118.4 181.17 117.745 180.317ZM115.795 184.505C115.454 184.754 115.048 184.897 114.626 184.916C114.205 184.936 113.787 184.83 113.425 184.612C113.063 184.395 112.774 184.075 112.593 183.694C112.413 183.312 112.349 182.886 112.41 182.468C112.47 182.051 112.653 181.66 112.935 181.346C113.217 181.032 113.585 180.808 113.994 180.703C114.403 180.597 114.833 180.615 115.232 180.753C115.631 180.892 115.98 181.145 116.235 181.481C116.405 181.708 116.528 181.967 116.598 182.242C116.668 182.517 116.683 182.803 116.642 183.084C116.601 183.365 116.505 183.635 116.36 183.879C116.214 184.122 116.022 184.335 115.794 184.504L115.795 184.505Z" fill="black"/>
<path d="M115.794 184.504C115.454 184.754 115.047 184.897 114.625 184.916C114.204 184.935 113.786 184.83 113.424 184.612C113.062 184.395 112.773 184.075 112.592 183.694C112.411 183.312 112.347 182.886 112.408 182.469C112.469 182.051 112.651 181.66 112.933 181.346C113.215 181.032 113.583 180.808 113.992 180.703C114.4 180.597 114.831 180.614 115.23 180.753C115.628 180.891 115.978 181.144 116.233 181.48C116.403 181.707 116.527 181.966 116.597 182.241C116.667 182.516 116.682 182.802 116.642 183.083C116.601 183.364 116.505 183.634 116.36 183.878C116.214 184.122 116.022 184.335 115.794 184.504Z" fill="#3DF9D3"/>
<path d="M176.303 157.076C176.303 157.076 167.627 152.959 159.48 156.652C151.68 160.189 146.158 185.368 156.266 191.746C162.505 195.683 166.751 192.205 170.281 193.226C175.517 194.741 186.258 168.815 176.303 157.076Z" fill="white"/>
<g opacity="0.35">
<g opacity="0.35">
<g opacity="0.35">
<g opacity="0.35">
<path opacity="0.35" d="M180.217 173.461C179.189 184.014 173.617 194.19 170.283 193.226C166.752 192.205 162.506 195.684 156.267 191.747C151.438 188.698 150.177 181.362 151.029 174.14C151.603 178.354 153.229 181.965 156.267 183.882C162.506 187.815 166.66 185.982 170.283 185.36C174.762 184.588 178.413 179.688 180.217 173.461Z" fill="black"/>
</g>
</g>
</g>
</g>
<path d="M162.664 195.278C160.085 195.279 157.563 194.523 155.409 193.105C152.829 191.365 150.974 188.743 150.193 185.731C149.287 182.502 148.97 179.136 149.257 175.795C149.552 171.458 150.572 167.202 152.275 163.203C153.533 160.33 155.689 156.603 158.817 155.189C167.543 151.234 176.611 155.443 176.993 155.624L177.306 155.772L177.53 156.036C182.086 161.409 182.349 168.83 181.767 174.11C181.156 179.932 179.287 185.552 176.287 190.579C173.558 194.795 171.273 195.185 169.836 194.77C168.681 194.578 167.499 194.624 166.363 194.907C165.142 195.131 163.905 195.255 162.664 195.278ZM166.906 156.716C164.577 156.692 162.271 157.169 160.143 158.116C158.451 158.883 156.656 161.207 155.218 164.492C153.67 168.155 152.739 172.049 152.462 176.016C151.983 182.978 153.682 188.216 157.122 190.388C160.591 192.577 163.266 192.149 165.853 191.735C167.453 191.35 169.12 191.332 170.727 191.684C170.913 191.716 172.251 191.201 174.137 187.934C178.537 180.316 181.324 165.928 175.307 158.396C173.782 157.778 172.196 157.326 170.574 157.046C169.365 156.831 168.139 156.72 166.91 156.715L166.906 156.716Z" fill="black"/>
<path d="M200.564 65.4209C196.994 61.7178 194.904 56.8346 194.691 51.6949C194.477 46.5551 196.154 41.5154 199.406 37.5289C202.657 33.5423 207.256 30.8854 212.334 30.0608C217.411 29.2361 222.615 30.3009 226.961 33.0536C231.306 35.8064 234.493 40.0563 235.917 44.9994C237.341 49.9426 236.903 55.2362 234.688 59.8789C232.473 64.5217 228.633 68.1918 223.895 70.1948C219.157 72.1978 213.849 72.395 208.975 70.749L199.939 75.0119L200.564 65.4209Z" fill="#0174FF"/>
<g opacity="0.5">
<g opacity="0.5">
<g opacity="0.5">
<g opacity="0.5">
<g opacity="0.5">
<path opacity="0.5" d="M213.714 33.89C208.556 34.5014 203.805 36.9969 200.375 40.8973C196.944 44.7976 195.075 49.8278 195.127 55.022C194.467 52.1397 194.422 49.1508 194.994 46.2497C195.565 43.3487 196.741 40.6005 198.445 38.1838C200.149 35.7672 202.342 33.7364 204.883 32.2233C207.423 30.7103 210.254 29.7491 213.19 29.402C216.126 29.055 219.103 29.33 221.926 30.2092C224.749 31.0884 227.356 32.5521 229.576 34.505C231.796 36.4579 233.58 38.8563 234.812 41.5442C236.044 44.2321 236.697 47.1493 236.727 50.106C235.566 45.0407 232.575 40.5832 228.327 37.5899C224.079 34.5967 218.875 33.2789 213.714 33.89Z" fill="white"/>
</g>
</g>
</g>
</g>
</g>
<path d="M199.939 76.557C199.728 76.5569 199.519 76.5134 199.325 76.4293C199.131 76.3452 198.956 76.2221 198.812 76.0679C198.667 75.9136 198.556 75.7314 198.484 75.5324C198.413 75.3334 198.384 75.1219 198.397 74.911L198.979 65.989C195.308 61.9403 193.23 56.6975 193.131 51.2332C193.032 45.769 194.918 40.4542 198.439 36.2749C201.961 32.0955 206.879 29.3354 212.281 28.5064C217.682 27.6775 223.202 28.836 227.815 31.767C232.427 34.6981 235.82 39.2028 237.364 44.4454C238.908 49.688 238.497 55.3125 236.209 60.2756C233.921 65.2388 229.911 69.2036 224.922 71.4345C219.933 73.6653 214.304 74.0108 209.079 72.4069L200.596 76.4069C200.391 76.5046 200.167 76.5559 199.939 76.557ZM215.725 31.2639C214.953 31.2641 214.182 31.3099 213.415 31.401C209.804 31.828 206.384 33.2555 203.541 35.5222C200.697 37.789 198.544 40.805 197.323 44.2302C196.102 47.6554 195.862 51.3535 196.63 54.9077C197.398 58.4619 199.145 61.7309 201.671 64.346C201.821 64.5009 201.937 64.6855 202.011 64.8879C202.085 65.0902 202.116 65.3059 202.102 65.5209L201.647 72.494L208.311 69.3499C208.673 69.1793 209.087 69.1556 209.466 69.2839C212.21 70.2156 215.129 70.5187 218.006 70.1709C222.946 69.5826 227.475 67.1304 230.668 63.3153C233.861 59.5001 235.477 54.6099 235.186 49.6434C234.895 44.6769 232.719 40.0089 229.102 36.593C225.485 33.1771 220.7 31.271 215.725 31.2639Z" fill="black"/>
<g opacity="0.3">
<g opacity="0.3">
<g opacity="0.3">
<g opacity="0.3">
<path opacity="0.3" d="M200.405 65.2499C204.008 67.1401 208.028 68.0967 212.097 68.0319C216.166 67.9671 220.153 66.8831 223.695 64.879C227.236 62.875 230.219 60.0149 232.369 56.5604C234.52 53.1059 235.77 49.1674 236.005 45.105C236.823 48.0341 236.997 51.1056 236.516 54.1085C236.035 57.1115 234.91 59.9748 233.218 62.5018C231.526 65.0289 229.307 67.16 226.714 68.7485C224.12 70.3371 221.214 71.3457 218.194 71.705C215.088 72.0767 211.939 71.7494 208.976 70.7469L199.94 75.0099L200.565 65.4189C200.51 65.3649 200.459 65.3059 200.405 65.2499Z" fill="black"/>
</g>
</g>
</g>
</g>
<path d="M209.052 44.8709C209.972 44.0411 211.182 43.6096 212.419 43.6709C213.656 43.7322 214.819 44.2813 215.652 45.1979L215.936 45.4819L216.219 45.1979C217.052 44.2813 218.214 43.7322 219.451 43.6709C220.688 43.6096 221.9 44.0411 222.819 44.8709C223.694 45.7462 224.186 46.9333 224.186 48.1709C224.186 49.4086 223.694 50.5955 222.819 51.4708L222.535 51.7549L216.803 57.4869C216.572 57.7175 216.259 57.847 215.933 57.847C215.607 57.847 215.294 57.7175 215.063 57.4869L209.331 51.7549L209.047 51.4708C208.173 50.5948 207.682 49.4075 207.683 48.1698C207.684 46.9322 208.176 45.7455 209.052 44.8709Z" fill="white"/>
</svg>
