<svg width="267" height="436" viewBox="0 0 367 836" fill="none" xmlns="http://www.w3.org/2000/svg">
<path d="M225.415 666.564C225.415 666.564 284.406 711.553 191.395 827.497C190.375 828.775 189.083 829.808 187.614 830.522C186.146 831.236 184.537 831.613 182.904 831.624C181.272 831.636 179.658 831.281 178.18 830.588C176.701 829.894 175.396 828.878 174.358 827.615C150.585 798.607 89.1364 713.904 139.243 667.22L225.415 666.564Z" fill="#0174FF"/>
<path d="M212.956 666.404C212.956 666.404 254.817 698.33 188.537 780.642C187.858 781.488 186.999 782.171 186.024 782.643C185.049 783.115 183.981 783.364 182.898 783.371C181.816 783.378 180.745 783.144 179.764 782.685C178.782 782.226 177.915 781.554 177.224 780.718C160.694 760.644 116.343 700.118 152.031 666.867L212.956 666.404Z" fill="#0866C4"/>
<path d="M202.992 663.235C202.992 663.235 231.241 684.778 186.515 740.319C186.056 740.889 185.477 741.35 184.819 741.669C184.161 741.987 183.44 742.155 182.71 742.16C181.979 742.165 181.256 742.007 180.594 741.697C179.932 741.387 179.347 740.934 178.881 740.369C167.727 726.818 137.804 685.985 161.881 663.547L202.992 663.235Z" fill="#7DBEFF"/>
<path d="M182.813 836C180.55 836.003 178.315 835.501 176.27 834.531C174.224 833.56 172.42 832.145 170.988 830.388C159.115 815.903 137.363 786.932 125.039 755.651C109.515 716.252 113.303 685.419 136.274 664.01C137.073 663.266 138.12 662.849 139.21 662.841L225.381 662.185H225.414C226.368 662.185 227.296 662.499 228.054 663.079C228.716 663.583 244.294 675.745 247.608 702.977C251.917 738.361 234.148 781.178 194.794 830.237C193.365 832.027 191.555 833.474 189.496 834.47C187.436 835.467 185.181 835.989 182.895 835.997L182.813 836ZM141.004 671.582C122.013 690.265 119.37 717.457 133.152 752.438C145.039 782.609 166.177 810.75 177.728 824.838C178.354 825.599 179.141 826.21 180.033 826.628C180.924 827.045 181.898 827.257 182.882 827.249C183.865 827.241 184.835 827.013 185.72 826.581C186.605 826.15 187.382 825.525 187.996 824.754C234.923 766.256 241.628 727.02 238.991 704.405C236.662 684.428 227.056 673.965 223.813 670.952L141.004 671.582Z" fill="black"/>
<path d="M183.499 457.941L333.614 598.676V665.414L183.499 607.24V457.941Z" fill="#3DF9D3"/>
<path d="M183.502 457.941L33.3867 598.676V665.414L183.502 607.239V457.941Z" fill="#3DF9D3"/>
<g opacity="0.35">
<path opacity="0.35" d="M112.707 524.304C102.211 548.902 95.6608 575.01 93.2987 601.661C92.8329 606.867 90.9245 611.838 87.7894 616.013C84.6543 620.188 80.4176 623.4 75.5579 625.286L33.3823 641.626V665.413V656.959L183.497 598.774V457.938L112.707 524.304Z" fill="black"/>
</g>
<g opacity="0.35">
<path opacity="0.35" d="M291.444 625.285C286.584 623.398 282.348 620.186 279.213 616.012C276.078 611.837 274.169 606.866 273.703 601.66C271.341 575.009 264.791 548.901 254.294 524.303L183.498 457.938V598.774L333.613 656.959V665.413V641.626L291.444 625.285Z" fill="black"/>
</g>
<g opacity="0.5">
<path opacity="0.5" d="M333.622 597.468V610.46L183.496 474.109V456.725L333.622 597.468Z" fill="white"/>
</g>
<g opacity="0.5">
<path opacity="0.5" d="M183.497 456.73V474.114L33.3823 610.465V597.473L183.497 456.73Z" fill="white"/>
</g>
<path d="M337.509 671.096L179.615 609.91V448.954L337.509 596.982V671.096ZM187.394 604.552L329.73 659.715V600.369L187.394 466.928V604.552Z" fill="black"/>
<path d="M346.72 534.015C335.17 534.015 329.959 577.884 330.344 595.146L332.57 693.138C332.636 696.041 333.832 698.802 335.902 700.831C337.972 702.861 340.751 703.997 343.646 703.997H349.787C352.681 703.997 355.461 702.861 357.531 700.831C359.601 698.802 360.797 696.041 360.862 693.138L363.088 595.146C363.483 577.884 358.272 534.015 346.72 534.015Z" fill="#3DF9D3"/>
<g opacity="0.5">
<path opacity="0.5" d="M363.094 593.935L362.854 604.39C361.687 584.268 356.454 553.138 346.717 553.138C336.98 553.138 331.757 584.276 330.59 604.401L330.35 593.935C329.957 576.677 335.169 532.807 346.717 532.807C358.265 532.807 363.48 576.675 363.094 593.935Z" fill="white"/>
</g>
<path d="M29.4907 671.096V596.979L187.384 448.951V609.91L29.4907 671.096ZM37.2693 600.368V659.714L179.606 604.551V466.929L37.2693 600.368Z" fill="black"/>
<path d="M20.2789 534.015C31.8296 534.015 37.0413 577.884 36.6551 595.146L34.4292 693.138C34.3632 696.041 33.1674 698.802 31.0974 700.831C29.0275 702.861 26.248 703.997 23.3535 703.997H17.2124C14.3178 703.997 11.5381 702.861 9.4681 700.832C7.3981 698.802 6.2023 696.041 6.13669 693.138L3.91091 595.146C3.51652 577.884 8.72827 534.015 20.2789 534.015Z" fill="#3DF9D3"/>
<g opacity="0.35">
<path opacity="0.35" d="M35.8787 629.232L34.417 693.137C34.3539 696.039 33.1602 698.801 31.0914 700.831C29.0227 702.861 26.2435 703.997 23.3495 703.997H17.2084C14.3137 703.996 11.5343 702.859 9.46408 700.83C7.39391 698.8 6.19736 696.039 6.13001 693.137L4.6792 629.177C6.52152 648.798 11.6146 673.45 20.2721 673.45C28.9296 673.45 34.024 648.842 35.8787 629.232Z" fill="black"/>
</g>
<g opacity="0.5">
<path opacity="0.5" d="M36.6525 593.935L36.4123 604.39C35.2455 584.268 30.0119 553.138 20.2749 553.138C10.5378 553.138 5.31399 584.276 4.14855 604.401L3.90833 593.935C3.5153 576.677 8.72828 532.807 20.2749 532.807C31.8214 532.807 37.0456 576.675 36.6525 593.935Z" fill="white"/>
</g>
<path d="M23.3466 707.899H17.2055C13.3014 707.877 9.55862 706.334 6.7668 703.597C3.97499 700.86 2.3525 697.141 2.2418 693.227L0.016023 595.235C-0.299219 581.362 3.08107 543.85 13.323 533.343C14.1787 532.331 15.2437 531.518 16.4442 530.96C17.6447 530.402 18.9517 530.113 20.2747 530.113C21.5977 530.113 22.9047 530.402 24.1052 530.96C25.3057 531.518 26.3707 532.331 27.2264 533.343C37.4615 543.851 40.8486 581.363 40.5334 595.235L38.3076 693.227C38.1966 697.141 36.5744 700.858 33.7833 703.596C30.9921 706.333 27.2501 707.876 23.3466 707.899ZM20.2789 537.917C19.7293 538.042 19.2391 538.353 18.8909 538.797C11.9924 545.874 7.40582 577.808 7.79748 595.056L10.0233 693.048C10.0773 694.927 10.8568 696.712 12.1974 698.027C13.538 699.341 15.3351 700.082 17.2097 700.093H23.3507C25.2253 700.082 27.0222 699.341 28.3628 698.027C29.7035 696.712 30.4831 694.927 30.5371 693.048L32.7629 595.056C33.1546 577.808 28.5678 545.873 21.6694 538.797C21.3204 538.352 20.8294 538.042 20.2789 537.917Z" fill="black"/>
<g opacity="0.35">
<path opacity="0.35" d="M362.321 629.232L360.859 693.137C360.796 696.039 359.602 698.801 357.533 700.831C355.464 702.861 352.685 703.997 349.791 703.997H343.65C340.755 703.996 337.976 702.859 335.906 700.83C333.836 698.8 332.639 696.039 332.572 693.137L331.121 629.177C332.963 648.798 338.056 673.45 346.714 673.45C355.372 673.45 360.466 648.842 362.321 629.232Z" fill="black"/>
</g>
<path d="M349.788 707.899H343.647C339.743 707.877 336.001 706.334 333.209 703.597C330.417 700.859 328.794 697.141 328.682 693.227L326.456 595.235C326.141 581.362 329.523 543.85 339.763 533.343C340.619 532.331 341.684 531.518 342.885 530.96C344.085 530.402 345.392 530.113 346.715 530.113C348.038 530.113 349.345 530.402 350.546 530.96C351.746 531.518 352.811 532.331 353.667 533.343C363.902 543.851 367.289 581.363 366.974 595.235L364.747 693.227C364.636 697.14 363.014 700.858 360.223 703.595C357.433 706.332 353.691 707.875 349.788 707.899ZM346.721 537.917C346.171 538.042 345.681 538.353 345.333 538.797C338.436 545.874 333.849 577.808 334.241 595.056L336.466 693.048C336.52 694.927 337.3 696.712 338.641 698.027C339.981 699.341 341.778 700.082 343.653 700.093H349.794C351.669 700.082 353.466 699.341 354.806 698.027C356.147 696.712 356.926 694.927 356.98 693.048L359.206 595.056C359.598 577.808 355.011 545.873 348.114 538.797C347.764 538.352 347.272 538.041 346.721 537.917Z" fill="black"/>
<path d="M324.85 330.574C324.85 447.403 285.112 544.723 267.012 582.991C262.035 593.513 249.909 600.427 236.393 600.427H130.608C117.098 600.427 104.964 593.513 99.9887 582.991C81.8875 544.721 42.1508 447.403 42.1494 330.574C42.1494 120.05 150.381 3.90649 183.5 3.90649C216.62 3.90649 324.85 120.056 324.85 330.574Z" fill="white"/>
<g opacity="0.35">
<path opacity="0.35" d="M99.9817 573.724C104.964 584.011 117.089 590.763 130.611 590.763H236.39C249.911 590.763 262.036 584.009 267.008 573.724C284.847 536.875 323.706 443.978 324.827 332.023C324.763 321.425 324.426 311.071 323.817 300.959C324.849 399.452 289.58 553.346 182.666 553.346C75.7531 553.346 42.5312 402.252 43.1822 300.959C42.5062 312.173 42.161 323.699 42.1465 335.538C42.1465 334.357 42.1654 333.192 42.1736 332.016C43.2927 443.975 82.144 536.874 99.9817 573.724Z" fill="black"/>
</g>
<path d="M236.393 604.328H130.609C115.524 604.328 102.124 596.608 96.4745 584.662C78.9711 547.658 38.2612 448.821 38.2612 330.573C38.2612 214.908 70.2139 133.935 97.0204 86.3764C128.639 30.2755 165.177 0.00415039 183.502 0.00415039C201.827 0.00415039 238.362 30.2741 269.983 86.3764C296.789 133.936 328.742 214.908 328.742 330.573C328.742 448.818 288.031 547.656 270.529 584.662C264.876 596.608 251.478 604.328 236.393 604.328ZM183.5 7.80775C170.087 7.80775 135.477 33.9987 103.792 90.2105C77.4454 136.954 46.0399 216.599 46.0399 330.574C46.0399 447.236 86.2257 544.794 103.503 581.318C107.804 590.414 118.697 596.524 130.608 596.524H236.391C248.302 596.524 259.195 590.414 263.497 581.318C280.775 544.79 320.961 447.233 320.961 330.574C320.961 216.606 289.555 136.961 263.209 90.2105C231.523 33.9987 196.914 7.80775 183.5 7.80775Z" fill="black"/>
<g opacity="0.3">
<path opacity="0.3" d="M296.33 377.684C296.328 400.68 289.527 423.158 276.788 442.278C264.05 461.397 245.945 476.298 224.763 485.096C203.581 493.895 180.274 496.196 157.788 491.709C135.302 487.221 114.648 476.146 98.4376 459.885C82.227 443.624 71.1878 422.906 66.7159 400.352C62.244 377.798 64.5402 354.42 73.3142 333.175C82.0883 311.93 96.946 293.772 116.009 280.996C135.071 268.22 157.483 261.401 180.41 261.401C195.652 261.336 210.756 264.3 224.85 270.12C238.944 275.941 251.749 284.504 262.526 295.315C273.304 306.126 281.84 318.971 287.641 333.108C293.443 347.246 296.396 362.396 296.33 377.684Z" fill="black"/>
</g>
<path d="M296.33 352.042C296.328 375.038 289.527 397.516 276.788 416.636C264.05 435.755 245.945 450.656 224.763 459.454C203.581 468.253 180.274 470.554 157.788 466.067C135.302 461.579 114.648 450.504 98.4376 434.243C82.227 417.982 71.1878 397.264 66.7159 374.71C62.244 352.156 64.5402 328.778 73.3142 307.533C82.0883 286.288 96.946 268.129 116.009 255.354C135.071 242.578 157.483 235.759 180.41 235.759C195.652 235.694 210.756 238.657 224.85 244.478C238.944 250.299 251.749 258.861 262.527 269.672C273.304 280.483 281.84 293.328 287.642 307.466C293.444 321.603 296.396 336.753 296.33 352.042Z" fill="#3DF9D3"/>
<g opacity="0.25">
<path opacity="0.25" d="M296.325 352.037C296.325 367.306 293.327 382.425 287.502 396.531C281.676 410.637 273.138 423.454 262.374 434.251C251.61 445.047 238.832 453.611 224.768 459.454C210.705 465.297 195.632 468.305 180.409 468.305C165.187 468.305 150.114 465.297 136.05 459.454C121.986 453.611 109.208 445.047 98.4441 434.251C87.6803 423.454 79.1421 410.637 73.3168 396.531C67.4915 382.425 64.4932 367.306 64.4932 352.037C64.4932 349.901 64.5519 347.781 64.6692 345.678C66.2829 375.367 79.1753 403.308 100.696 423.756C122.217 444.204 150.73 455.605 180.373 455.615C210.017 455.625 238.537 444.243 260.072 423.81C281.606 403.376 294.517 375.444 296.151 345.756C296.267 347.834 296.325 349.928 296.325 352.037Z" fill="black"/>
</g>
<path d="M241.658 600.427V614.871C241.657 620.232 239.533 625.374 235.753 629.165C231.973 632.956 226.847 635.087 221.501 635.088H145.5C142.853 635.088 140.231 634.566 137.785 633.55C135.34 632.535 133.117 631.045 131.246 629.168C129.374 627.29 127.889 625.061 126.876 622.608C125.864 620.155 125.343 617.526 125.343 614.871V600.427H241.658Z" fill="#3DF9D3"/>
<g opacity="0.35">
<path opacity="0.35" d="M147.011 614.871V600.427H125.34V614.871C125.34 617.526 125.861 620.155 126.874 622.608C127.887 625.061 129.371 627.29 131.243 629.167C133.115 631.045 135.337 632.534 137.783 633.55C140.228 634.566 142.85 635.088 145.497 635.088H167.168C164.521 635.088 161.9 634.566 159.454 633.55C157.008 632.534 154.786 631.045 152.914 629.167C151.043 627.29 149.558 625.061 148.545 622.608C147.532 620.155 147.011 617.526 147.011 614.871Z" fill="black"/>
</g>
<g opacity="0.5">
<path opacity="0.5" d="M241.656 600.424V614.872C241.656 620.233 239.533 625.373 235.754 629.164C231.975 632.954 226.85 635.083 221.505 635.084H208.933C214.277 635.083 219.402 632.954 223.181 629.164C226.96 625.373 229.083 620.233 229.084 614.872V600.424H241.656Z" fill="white"/>
</g>
<path d="M232.25 655.831C232.25 657.177 231.986 658.511 231.472 659.755C230.959 660.999 230.206 662.129 229.256 663.081C228.307 664.033 227.18 664.788 225.94 665.304C224.7 665.819 223.371 666.084 222.028 666.083H144.973C143.162 666.084 141.383 665.601 139.819 664.686C138.255 663.77 136.961 662.455 136.071 660.873C135.18 659.291 134.725 657.501 134.751 655.684C134.777 653.868 135.284 652.092 136.22 650.536L145.499 635.086H221.504L230.784 650.536C231.746 652.134 232.253 653.965 232.25 655.831Z" fill="black"/>
<g opacity="0.5">
<path opacity="0.5" d="M233.451 655.831C233.453 657.178 233.19 658.513 232.677 659.758C232.165 661.003 231.413 662.135 230.464 663.088C229.515 664.042 228.388 664.798 227.147 665.315C225.906 665.831 224.577 666.097 223.233 666.097H212.242C214.052 666.094 215.829 665.609 217.392 664.693C218.954 663.776 220.246 662.46 221.136 660.879C222.026 659.298 222.482 657.509 222.458 655.693C222.434 653.878 221.93 652.101 220.998 650.545L211.718 635.091H222.709L231.978 650.545C232.943 652.138 233.452 653.967 233.451 655.831Z" fill="white"/>
</g>
<g opacity="0.5">
<path opacity="0.5" d="M133.482 655.831C133.48 657.178 133.743 658.513 134.255 659.758C134.768 661.003 135.52 662.135 136.469 663.088C137.418 664.042 138.545 664.798 139.786 665.315C141.026 665.831 142.356 666.097 143.699 666.097H154.691C152.88 666.094 151.103 665.609 149.541 664.693C147.978 663.776 146.686 662.46 145.796 660.879C144.906 659.298 144.45 657.509 144.474 655.693C144.499 653.878 145.003 652.101 145.935 650.545L155.215 635.091H144.223L134.954 650.545C133.99 652.138 133.481 653.967 133.482 655.831Z" fill="white"/>
</g>
<path d="M302.534 173.456C263.703 178.249 224.613 180.615 185.49 180.541C145.079 180.624 104.706 178.093 64.6201 172.964C98.1613 62.882 159.9 3.90112 183.495 3.90112C207.135 3.90112 269.025 63.0586 302.534 173.456Z" fill="#3DF9D3"/>
<g opacity="0.4">
<path opacity="0.4" d="M215.86 61.85C234.717 83.4403 251.907 111.582 259.09 147.243C264.084 172.035 222.926 120.289 208.291 93.3217C183.926 48.4232 193.64 36.4064 215.86 61.85Z" fill="white"/>
</g>
<g opacity="0.5">
<path opacity="0.5" d="M183.496 2.69385C160.324 2.69385 100.368 59.5818 66.4556 165.885C68.1191 166.098 69.7827 166.312 71.4585 166.514C105.97 69.7384 161.427 18.1218 183.499 18.1218C205.607 18.1218 261.212 69.8986 295.722 166.979C297.398 166.785 299.052 166.578 300.707 166.371C266.82 59.7529 206.712 2.69385 183.496 2.69385Z" fill="white"/>
</g>
<path d="M185.491 184.444C144.912 184.533 104.37 181.991 64.118 176.833L59.5571 176.235L60.9013 171.822C79.9305 109.371 106.121 68.2355 124.743 44.7247C146.592 17.1376 169.106 0 183.496 0C197.92 0 220.479 17.1869 242.362 44.8534C261.02 68.4367 287.249 109.695 306.256 172.32L307.601 176.751L303.019 177.329C264.029 182.146 224.777 184.522 185.491 184.444ZM69.7118 169.683C108.125 174.394 146.792 176.718 185.491 176.64C222.903 176.708 260.286 174.542 297.442 170.153C278.92 111.189 254.063 72.1982 236.267 49.6976C213.369 20.7526 193.263 7.79813 183.495 7.79813C173.751 7.79813 153.689 20.7157 130.833 49.573C113.073 72.0052 88.2483 110.877 69.7118 169.681V169.683Z" fill="black"/>
<path d="M221.501 638.99H145.497C139.122 638.983 133.01 636.439 128.502 631.917C123.994 627.396 121.458 621.265 121.451 614.871V596.528H245.549V614.871C245.541 621.265 243.006 627.396 238.497 631.918C233.989 636.44 227.877 638.983 221.501 638.99ZM129.231 604.328V614.868C129.236 619.193 130.952 623.34 134.001 626.399C137.05 629.457 141.185 631.178 145.497 631.183H221.501C225.814 631.178 229.949 629.458 232.998 626.399C236.048 623.34 237.763 619.193 237.769 614.868V604.328H129.231Z" fill="black"/>
<path d="M222.028 669.987H144.973C142.472 669.987 140.017 669.321 137.857 668.057C135.698 666.793 133.912 664.976 132.683 662.792C131.454 660.608 130.825 658.136 130.861 655.628C130.898 653.12 131.598 650.667 132.89 648.52L143.3 631.184H223.7L234.112 648.524C235.403 650.671 236.102 653.124 236.137 655.631C236.173 658.138 235.544 660.61 234.315 662.793C233.085 664.976 231.3 666.792 229.141 668.057C226.983 669.321 224.528 669.987 222.028 669.987ZM147.697 638.989L139.552 652.55C138.973 653.513 138.659 654.614 138.642 655.739C138.626 656.864 138.908 657.973 139.459 658.952C140.011 659.932 140.812 660.747 141.781 661.315C142.749 661.882 143.851 662.181 144.973 662.181H222.028C223.15 662.181 224.251 661.882 225.219 661.315C226.188 660.749 226.989 659.934 227.54 658.955C228.092 657.976 228.375 656.867 228.359 655.742C228.343 654.618 228.03 653.517 227.451 652.554L219.304 638.988L147.697 638.989Z" fill="black"/>
<g opacity="0.7">
<path opacity="0.7" d="M296.329 349.564C296.329 351.883 296.26 354.187 296.122 356.477C294.372 326.884 281.419 299.08 259.911 278.748C238.403 258.416 209.964 247.093 180.409 247.093C150.854 247.093 122.416 258.416 100.907 278.748C79.3993 299.08 66.4462 326.884 64.6964 356.477C64.5544 354.191 64.4853 351.887 64.489 349.564C64.4366 334.262 67.3963 319.099 73.1983 304.947C79.0004 290.794 87.5307 277.929 98.3 267.09C109.069 256.251 121.866 247.651 135.956 241.783C150.046 235.914 165.152 232.894 180.409 232.894C195.665 232.894 210.771 235.914 224.861 241.783C238.951 247.651 251.748 256.251 262.517 267.09C273.286 277.929 281.817 290.794 287.619 304.947C293.421 319.099 296.38 334.262 296.328 349.564H296.329Z" fill="white"/>
</g>
<path d="M180.409 472.219C156.711 472.219 133.545 465.171 113.841 451.965C94.1369 438.759 78.7794 419.989 69.7106 398.029C60.6418 376.069 58.2689 351.904 62.8922 328.591C67.5154 305.278 78.9272 283.864 95.6842 267.056C112.441 250.248 133.791 238.802 157.033 234.165C180.276 229.527 204.368 231.907 226.262 241.004C248.156 250.1 266.869 265.504 280.035 285.268C293.201 305.032 300.228 328.268 300.228 352.037C300.192 383.901 287.557 414.448 265.094 436.979C242.631 459.509 212.176 472.183 180.409 472.219ZM180.409 239.667C158.25 239.667 136.588 246.258 118.163 258.607C99.7377 270.955 85.3772 288.506 76.8972 309.041C68.4171 329.576 66.1983 352.171 70.5214 373.971C74.8445 395.771 85.5155 415.795 101.185 431.511C116.854 447.228 136.817 457.931 158.551 462.267C180.285 466.604 202.812 464.378 223.285 455.872C243.758 447.366 261.256 432.963 273.567 414.482C285.878 396.001 292.45 374.274 292.45 352.047C292.417 322.252 280.603 293.686 259.598 272.618C238.593 251.55 210.114 239.699 180.409 239.667Z" fill="black"/>
<path d="M183.501 534.015C171.95 534.015 166.738 577.884 167.124 595.146L169.35 693.138C169.416 696.041 170.612 698.802 172.682 700.831C174.752 702.861 177.531 703.997 180.426 703.997H186.567C189.462 703.997 192.241 702.861 194.311 700.831C196.381 698.802 197.577 696.041 197.643 693.138L199.869 595.146C200.262 577.884 195.051 534.015 183.501 534.015Z" fill="#3DF9D3"/>
<g opacity="0.5">
<path opacity="0.5" d="M199.874 593.934L199.59 606.528C198.325 586.382 193.102 556.087 183.496 556.087C173.89 556.087 168.677 586.405 167.413 606.549L167.13 593.939C166.736 576.681 171.948 532.812 183.496 532.812C195.044 532.812 200.265 576.675 199.874 593.934Z" fill="white"/>
</g>
<path d="M185.491 184.444C144.912 184.533 104.37 181.991 64.118 176.833L59.5571 176.235L60.9013 171.822C79.9305 109.371 106.121 68.2355 124.743 44.7247C146.592 17.1376 169.106 0 183.496 0C197.92 0 220.479 17.1869 242.362 44.8534C261.02 68.4367 287.249 109.695 306.256 172.32L307.601 176.751L303.019 177.329C264.029 182.146 224.777 184.522 185.491 184.444ZM69.7118 169.683C108.125 174.394 146.792 176.718 185.491 176.64C222.903 176.708 260.286 174.542 297.442 170.153C278.92 111.189 254.063 72.1982 236.267 49.6976C213.369 20.7526 193.263 7.79813 183.495 7.79813C173.751 7.79813 153.689 20.7157 130.833 49.573C113.073 72.0052 88.2483 110.877 69.7118 169.681V169.683Z" fill="black"/>
<g opacity="0.35">
<path opacity="0.35" d="M199.257 629.232L197.795 693.137C197.732 696.039 196.538 698.801 194.47 700.831C192.401 702.861 189.622 703.997 186.728 703.997H180.587C177.692 703.996 174.913 702.859 172.842 700.83C170.772 698.8 169.576 696.039 169.508 693.137L168.058 629.177C169.9 648.798 174.993 673.45 183.65 673.45C192.308 673.45 197.402 648.842 199.257 629.232Z" fill="black"/>
</g>
<path d="M186.568 707.899H180.427C176.523 707.877 172.781 706.334 169.989 703.597C167.197 700.859 165.575 697.141 165.463 693.227L163.238 595.235C162.922 581.362 166.304 543.85 176.545 533.343C177.4 532.331 178.465 531.518 179.666 530.96C180.866 530.402 182.173 530.113 183.496 530.113C184.819 530.113 186.127 530.402 187.327 530.96C188.528 531.518 189.593 532.331 190.448 533.343C200.683 543.851 204.07 581.363 203.755 595.235L201.529 693.227C201.418 697.141 199.796 700.858 197.005 703.596C194.214 706.333 190.472 707.876 186.568 707.899ZM183.501 537.917C182.951 538.042 182.461 538.353 182.113 538.797C175.216 545.874 170.629 577.808 171.02 595.056L173.246 693.048C173.3 694.927 174.08 696.712 175.421 698.027C176.761 699.341 178.558 700.082 180.433 700.093H186.574C188.448 700.082 190.245 699.341 191.586 698.027C192.927 696.712 193.706 694.927 193.76 693.048L195.987 595.056C196.379 577.808 191.792 545.873 184.894 538.797C184.544 538.351 184.051 538.041 183.499 537.917H183.501Z" fill="black"/>
<g opacity="0.7">
<path opacity="0.7" d="M180.409 447.627C227.67 447.627 265.982 409.199 265.982 361.796C265.982 314.392 227.67 275.964 180.409 275.964C133.149 275.964 94.8369 314.392 94.8369 361.796C94.8369 409.199 133.149 447.627 180.409 447.627Z" fill="white"/>
</g>
<path d="M265.983 352.037C265.985 373.701 257.819 394.565 243.123 410.441C228.428 426.317 208.29 436.031 186.751 437.635C184.66 437.791 182.539 437.869 180.41 437.869C163.478 437.874 146.925 432.842 132.845 423.41C118.764 413.978 107.789 400.569 101.307 384.88C94.825 369.19 93.1276 351.925 96.4296 335.268C99.7316 318.611 107.885 303.31 119.857 291.301C131.83 279.292 147.085 271.114 163.691 267.802C180.298 264.49 197.512 266.193 213.154 272.694C228.796 279.196 242.164 290.205 251.568 304.328C260.972 318.451 265.988 335.054 265.983 352.037Z" fill="#0174FF"/>
<path d="M180.409 441.774C162.715 441.774 145.419 436.511 130.706 426.651C115.994 416.791 104.528 402.777 97.7563 386.38C90.985 369.983 89.2134 351.941 92.6654 334.534C96.1173 317.127 104.638 301.138 117.15 288.589C129.661 276.039 145.602 267.493 162.956 264.03C180.31 260.568 198.298 262.345 214.646 269.137C230.993 275.929 244.965 287.43 254.795 302.187C264.626 316.943 269.873 334.293 269.873 352.04C269.846 375.831 260.412 398.64 243.64 415.462C226.868 432.285 204.128 441.748 180.409 441.774ZM180.409 270.111C164.254 270.111 148.462 274.917 135.03 283.919C121.598 292.922 111.128 305.718 104.946 320.688C98.7642 335.659 97.1469 352.132 100.299 368.025C103.451 383.917 111.23 398.515 122.654 409.973C134.077 421.431 148.631 429.234 164.476 432.395C180.321 435.556 196.744 433.934 211.669 427.733C226.595 421.532 239.352 411.031 248.327 397.558C257.302 384.084 262.093 368.244 262.093 352.04C262.068 330.319 253.454 309.494 238.141 294.134C222.828 278.775 202.065 270.135 180.409 270.111Z" fill="black"/>
<path d="M230.755 420.168L177.867 428.928C169.421 430.301 160.776 428.265 153.822 423.266C146.867 418.267 142.167 410.71 140.748 402.247L132.014 349.199C130.645 340.727 132.675 332.056 137.659 325.08C142.643 318.104 150.177 313.39 158.615 311.967L211.504 303.206C219.95 301.834 228.594 303.869 235.549 308.868C242.504 313.868 247.204 321.424 248.623 329.887L257.357 382.936C258.725 391.408 256.696 400.079 251.712 407.055C246.727 414.031 239.193 418.745 230.755 420.168Z" fill="white"/>
<path d="M172.582 432.083C164.298 432.049 156.293 429.081 149.979 423.703C143.665 418.325 139.448 410.882 138.073 402.689L129.339 349.641C127.853 340.457 130.051 331.057 135.454 323.495C140.857 315.932 149.024 310.823 158.172 309.283L211.06 300.522C220.216 299.031 229.587 301.237 237.127 306.656C244.667 312.075 249.761 320.267 251.296 329.442L260.03 382.491C261.532 391.676 259.339 401.084 253.934 408.65C248.528 416.216 240.352 421.322 231.197 422.849L178.309 431.609C176.416 431.924 174.5 432.082 172.582 432.083ZM216.778 305.488C215.159 305.489 213.542 305.623 211.944 305.888L159.056 314.648C151.327 315.953 144.426 320.273 139.86 326.663C135.294 333.054 133.435 340.997 134.687 348.758L143.421 401.806C144.723 409.559 149.031 416.481 155.403 421.06C161.775 425.639 169.694 427.503 177.432 426.246L230.32 417.486C238.057 416.197 244.968 411.881 249.537 405.486C254.106 399.091 255.959 391.14 254.689 383.377L245.955 330.328C244.789 323.404 241.222 317.116 235.885 312.571C230.548 308.026 223.783 305.518 216.782 305.487L216.778 305.488Z" fill="black"/>
<path d="M223.45 311.382C223.45 311.382 259.158 349.709 274.143 377.554C289.127 405.398 286.896 412.13 286.896 412.13L241.569 420.753L223.45 311.382Z" fill="white"/>
<path d="M239.35 423.937L219.307 302.955L225.431 309.525C226.898 311.1 261.548 348.429 276.527 376.261C291.319 403.747 289.901 411.675 289.467 412.985L288.965 414.501L239.35 423.937ZM227.637 320.07L243.788 417.56L284.237 409.87C283.91 406.604 281.96 397.805 271.757 378.846C260.848 358.582 238.482 332.309 227.637 320.07Z" fill="black"/>
<path d="M260.274 413.63C229.978 450.349 157.215 442.649 157.215 442.649C157.215 442.649 151.362 429.638 147.575 407.572C145.021 392.693 135.217 296.904 197.932 292.973C216.185 291.829 225.815 318.536 236.606 337.763C247.122 356.497 259.221 385.953 260.274 413.63Z" fill="white"/>
<path d="M173.806 446.096C164.272 446.096 157.798 445.45 156.932 445.358L155.385 445.195L154.747 443.773C154.502 443.225 148.708 430.193 144.906 408.04C144.795 407.394 134.547 342.485 160.783 309.195C169.926 297.601 182.364 291.234 197.766 290.268C198.478 290.233 199.175 290.48 199.706 290.957C200.238 291.433 200.561 292.101 200.605 292.814C200.65 293.528 200.412 294.231 199.943 294.77C199.475 295.309 198.813 295.641 198.103 295.694C184.3 296.56 173.173 302.236 165.031 312.568C140.252 344.007 150.137 406.496 150.243 407.119C152.069 418.381 155.03 429.429 159.081 440.091C169.688 440.9 230.579 444.071 257.517 412.694C255.951 380.116 239.343 348.19 234.246 339.106C234.061 338.795 233.939 338.449 233.889 338.09C233.839 337.73 233.861 337.365 233.953 337.014C234.046 336.663 234.208 336.335 234.43 336.048C234.651 335.761 234.928 335.521 235.243 335.343C235.558 335.165 235.906 335.052 236.266 335.011C236.625 334.97 236.989 335.002 237.336 335.104C237.683 335.206 238.007 335.377 238.287 335.606C238.567 335.836 238.799 336.119 238.968 336.44C244.273 345.885 261.678 379.378 262.977 413.534L263.016 414.571L262.356 415.37C240.329 442.069 197.574 446.096 173.806 446.096Z" fill="black"/>
<path d="M176.545 403.827C170.244 407.944 159.544 409.439 152.155 409.974C151.103 410.051 150.046 409.915 149.046 409.575C148.047 409.235 147.126 408.698 146.337 407.995C145.549 407.291 144.908 406.437 144.454 405.482C144 404.526 143.742 403.489 143.694 402.432C143.603 400.471 144.241 398.546 145.484 397.03C146.728 395.514 148.489 394.516 150.425 394.228C157.239 393.224 167.395 391.39 173.53 388.707" fill="white"/>
<g opacity="0.35">
<path opacity="0.35" d="M176.546 403.824C170.244 407.947 159.542 409.436 152.155 409.975C150.881 410.064 149.605 409.842 148.435 409.328C147.265 408.814 146.237 408.024 145.438 407.025C144.638 406.027 144.091 404.849 143.844 403.592C143.597 402.336 143.656 401.038 144.018 399.809C144.817 400.813 145.847 401.606 147.02 402.12C148.194 402.634 149.474 402.854 150.751 402.76C158.12 402.226 168.81 400.737 175.115 396.634L176.546 403.824Z" fill="black"/>
</g>
<path d="M151.565 412.409C148.963 412.404 146.46 411.412 144.556 409.632C142.653 407.853 141.491 405.418 141.303 402.814C141.115 400.211 141.915 397.633 143.543 395.597C145.171 393.562 147.507 392.218 150.081 391.837C160.071 390.363 168.059 388.464 172.573 386.491C173.392 386.131 176.287 385.324 178.86 390.114C181.279 394.615 182.634 402.729 177.859 405.855C171.206 410.204 160.302 411.807 152.328 412.387C152.073 412.402 151.819 412.409 151.565 412.409ZM173.838 391.192C167.535 393.784 157.886 395.563 150.775 396.61C149.361 396.811 148.081 397.555 147.205 398.686C146.329 399.817 145.927 401.245 146.083 402.669C146.238 404.092 146.941 405.399 148.041 406.312C149.14 407.225 150.551 407.673 151.975 407.561C162.449 406.8 170.705 404.753 175.225 401.799C176.18 401.174 176.258 399.336 176.247 398.583C176.178 395.939 175.341 393.373 173.838 391.199V391.192Z" fill="black"/>
<path d="M228.873 393.578C236.255 395.017 246.73 392.361 253.777 390.073C254.78 389.746 255.708 389.221 256.505 388.529C257.303 387.837 257.954 386.992 258.421 386.043C258.887 385.095 259.16 384.062 259.222 383.006C259.284 381.95 259.135 380.893 258.783 379.896C258.133 378.044 256.82 376.5 255.099 375.564C253.379 374.628 251.373 374.367 249.471 374.831C242.784 376.474 232.685 378.602 225.998 378.431" fill="white"/>
<g opacity="0.35">
<path opacity="0.35" d="M253.778 390.077C246.729 392.362 236.256 395.021 228.871 393.58L227.487 386.31C234.868 387.733 245.325 385.078 252.36 382.795C253.573 382.403 254.672 381.722 255.564 380.809C256.456 379.896 257.114 378.779 257.48 377.555C258.286 378.554 258.838 379.735 259.088 380.996C259.337 382.257 259.277 383.56 258.913 384.793C258.548 386.025 257.89 387.15 256.996 388.071C256.101 388.992 254.997 389.68 253.778 390.077Z" fill="black"/>
</g>
<path d="M233.523 396.399C231.81 396.413 230.099 396.263 228.415 395.951C222.82 394.855 221.033 386.833 221.591 381.749C222.18 376.339 225.161 375.978 226.058 376.019C231 376.144 239.099 374.891 248.904 372.488C251.495 371.858 254.228 372.26 256.529 373.608C258.831 374.956 260.523 377.145 261.25 379.717C261.977 382.289 261.683 385.044 260.429 387.403C259.175 389.762 257.06 391.543 254.525 392.371C248.473 394.337 240.468 396.399 233.523 396.399ZM226.648 380.859C226.068 383.441 226.253 386.136 227.18 388.614C227.453 389.321 228.211 390.991 229.333 391.214C234.629 392.245 243.047 391.028 253.036 387.781C254.386 387.339 255.512 386.39 256.179 385.134C256.846 383.877 257.003 382.411 256.616 381.041C256.229 379.671 255.329 378.505 254.104 377.786C252.878 377.067 251.423 376.852 250.044 377.185C243.11 378.884 233.572 380.863 226.765 380.863L226.648 380.859Z" fill="black"/>
<path d="M227.599 372.927L232.32 397.178C232.735 399.348 232.278 401.594 231.048 403.426C229.818 405.259 227.915 406.529 225.754 406.958L181.226 415.678C179.063 416.093 176.825 415.633 174.999 414.399C173.174 413.165 171.909 411.257 171.481 409.091L166.76 384.84C166.343 382.672 166.799 380.426 168.029 378.595C169.258 376.763 171.161 375.495 173.32 375.067L217.849 366.347C220.011 365.927 222.25 366.384 224.078 367.617C225.905 368.85 227.171 370.759 227.598 372.926L227.599 372.927Z" fill="white"/>
<g opacity="0.35">
<path opacity="0.35" d="M227.599 372.928L232.319 397.18C232.735 399.349 232.278 401.595 231.048 403.427C229.818 405.259 227.915 406.528 225.755 406.957L181.228 415.677C179.066 416.093 176.827 415.635 175 414.401C173.174 413.168 171.908 411.259 171.48 409.093L169.714 400.021C177.733 405.55 191.72 407.268 203.795 404.97C205.657 404.594 207.307 403.521 208.408 401.968C209.51 400.416 209.98 398.501 209.724 396.613C209.724 396.573 209.715 396.535 209.71 396.494C209.525 394.716 210.008 392.933 211.063 391.492C212.118 390.051 213.671 389.057 215.418 388.703C217.165 388.349 218.981 388.66 220.511 389.577C222.042 390.493 223.176 391.949 223.694 393.659C228.126 385.288 223.967 373.056 224.974 368.317C226.332 369.522 227.254 371.143 227.599 372.928Z" fill="black"/>
</g>
<path d="M179.634 418.247C177.151 418.242 174.747 417.372 172.831 415.788C170.915 414.204 169.606 412.002 169.126 409.558L164.405 385.304C163.863 382.507 164.45 379.609 166.036 377.245C167.622 374.881 170.078 373.245 172.866 372.694L217.394 363.975C220.182 363.436 223.07 364.026 225.425 365.616C227.781 367.206 229.413 369.668 229.964 372.462L234.684 396.716C235.222 399.512 234.634 402.409 233.048 404.772C231.463 407.134 229.009 408.771 226.223 409.324L181.695 418.045C181.016 418.178 180.326 418.246 179.634 418.247ZM219.442 368.606C219.063 368.606 218.686 368.642 218.314 368.715L173.785 377.435C172.25 377.737 170.897 378.638 170.024 379.939C169.15 381.241 168.827 382.837 169.125 384.377L173.847 408.631C174.148 410.171 175.046 411.527 176.343 412.404C177.641 413.28 179.232 413.605 180.767 413.306L225.295 404.585C226.828 404.278 228.177 403.377 229.05 402.077C229.922 400.776 230.247 399.183 229.954 397.644L225.233 373.39C224.966 372.044 224.243 370.832 223.188 369.959C222.133 369.086 220.809 368.606 219.441 368.599L219.442 368.606Z" fill="black"/>
<path d="M217.44 394.785C221.219 393.608 223.331 389.581 222.157 385.791C220.984 382.001 216.969 379.882 213.19 381.059C209.412 382.236 207.299 386.263 208.473 390.053C209.646 393.844 213.661 395.962 217.44 394.785Z" fill="#22A7F0"/>
<g opacity="0.7">
<path opacity="0.7" d="M222.345 386.54C222.437 387.013 222.483 387.494 222.481 387.976C221.847 386.444 220.705 385.18 219.247 384.396C217.79 383.612 216.108 383.358 214.486 383.676C212.863 383.994 211.4 384.864 210.343 386.14C209.287 387.415 208.703 389.018 208.689 390.676C208.508 390.23 208.371 389.767 208.28 389.294C208.1 388.368 208.103 387.415 208.29 386.49C208.477 385.565 208.844 384.686 209.369 383.903C209.895 383.12 210.569 382.449 211.353 381.927C212.137 381.406 213.016 381.044 213.94 380.863C214.863 380.683 215.813 380.686 216.735 380.873C217.657 381.061 218.534 381.428 219.314 381.956C220.095 382.483 220.764 383.159 221.284 383.945C221.804 384.732 222.164 385.614 222.345 386.54Z" fill="white"/>
</g>
<g opacity="0.35">
<path opacity="0.35" d="M222.345 386.545C222.657 388.393 222.236 390.29 221.174 391.832C220.111 393.373 218.489 394.437 216.655 394.796C214.821 395.156 212.92 394.782 211.357 393.755C209.794 392.728 208.693 391.129 208.288 389.299C208.116 388.426 208.112 387.527 208.275 386.652C209.045 387.877 210.166 388.84 211.491 389.414C212.817 389.988 214.284 390.147 215.701 389.87C217.118 389.592 218.418 388.892 219.431 387.86C220.444 386.827 221.122 385.512 221.376 384.087C221.851 384.837 222.18 385.672 222.345 386.545Z" fill="black"/>
</g>
<path d="M215.31 396.921C213.609 396.921 211.944 396.436 210.507 395.522C209.071 394.609 207.923 393.305 207.197 391.762C206.471 390.219 206.198 388.501 206.408 386.808C206.619 385.115 207.305 383.517 208.386 382.201C209.468 380.884 210.9 379.903 212.516 379.371C214.133 378.84 215.866 378.781 217.515 379.2C219.163 379.619 220.659 380.499 221.828 381.738C222.997 382.978 223.791 384.525 224.116 386.199C224.369 387.502 224.332 388.846 224.006 390.133C223.681 391.42 223.076 392.618 222.234 393.643C221.392 394.668 220.335 395.493 219.138 396.06C217.941 396.627 216.634 396.921 215.31 396.921ZM215.325 382.548C214.577 382.547 213.837 382.702 213.153 383.004C212.468 383.306 211.854 383.749 211.35 384.303C210.847 384.858 210.464 385.512 210.228 386.224C209.991 386.935 209.906 387.689 209.977 388.435C210.048 389.182 210.274 389.906 210.641 390.56C211.008 391.213 211.507 391.783 212.106 392.231C212.706 392.68 213.392 392.998 214.121 393.165C214.85 393.331 215.606 393.343 216.34 393.199C217.735 392.926 218.964 392.108 219.757 390.926C220.551 389.743 220.843 388.293 220.571 386.894C220.333 385.673 219.679 384.572 218.723 383.779C217.766 382.987 216.564 382.552 215.323 382.548H215.325Z" fill="black"/>
<path d="M199.337 413.941C198.918 413.941 198.512 413.795 198.188 413.528C197.865 413.261 197.644 412.889 197.563 412.476L195.055 399.591C194.839 398.499 194.375 397.471 193.698 396.588C193.021 395.705 192.15 394.99 191.152 394.501L188.993 393.448C187.493 392.712 186.183 391.638 185.165 390.31C184.147 388.982 183.449 387.436 183.125 385.792L180.753 373.61C180.661 373.138 180.76 372.649 181.028 372.25C181.296 371.851 181.711 371.575 182.181 371.483C182.652 371.391 183.14 371.491 183.537 371.759C183.935 372.028 184.21 372.444 184.301 372.916L186.673 385.098C186.889 386.191 187.353 387.219 188.03 388.102C188.707 388.985 189.579 389.699 190.576 390.189L192.734 391.242C194.234 391.978 195.544 393.052 196.562 394.379C197.58 395.707 198.278 397.253 198.602 398.896L201.11 411.781C201.156 412.014 201.155 412.254 201.108 412.487C201.061 412.721 200.968 412.942 200.836 413.139C200.703 413.337 200.533 413.506 200.336 413.637C200.138 413.768 199.917 413.86 199.684 413.905C199.57 413.928 199.454 413.94 199.337 413.941Z" fill="black"/>
<path d="M158.882 332.995C128.37 336.12 104.777 314.379 104.777 314.379C104.777 314.379 103.343 292.511 93.778 292.951C87.0911 293.259 88.3944 302.807 87.3218 302.185C79.786 297.824 71.8599 291.472 66.12 296.75C62.0547 300.488 64.6652 306.923 64.6652 306.923C64.6652 306.923 56.7951 305.944 52.4909 319.78C48.2836 333.304 60.907 335.679 66.5185 340.96C105.256 377.416 130.442 376.616 148.536 369.783" fill="white"/>
<g opacity="0.35">
<path opacity="0.35" d="M148.536 369.779C130.441 376.608 105.258 377.41 66.5188 340.953C60.91 335.673 48.288 333.301 52.4954 319.779C55.0773 311.468 58.9517 308.505 61.6278 307.459C60.8213 308.965 60.3204 310.881 59.3787 312.95C54.0865 324.606 72.2367 333.835 76.8016 331.442C79.6019 329.974 80.5204 328.713 81.7036 322.989C82.9618 316.903 85.4878 313.835 85.8481 314.175C87.4857 315.715 89.3555 336.359 93.4208 343.315C103.792 361.051 128.073 368.054 145.039 365.737C145.563 365.666 146.097 365.726 146.592 365.914C147.088 366.101 147.529 366.409 147.876 366.81C148.223 367.211 148.465 367.693 148.58 368.211C148.695 368.729 148.68 369.268 148.536 369.779Z" fill="black"/>
</g>
<path d="M129.399 376.189C113.551 376.189 92.453 369.085 64.6667 342.936C63.1912 341.682 61.601 340.57 59.9175 339.614C54.0985 336.024 46.1343 331.106 49.9063 318.964C52.9741 309.102 57.9238 305.785 61.315 304.699C60.9387 302.922 61.0139 301.078 61.5337 299.338C62.0536 297.598 63.0015 296.017 64.2901 294.74C70.6959 288.848 78.5224 293.645 85.4277 297.871L85.6404 298.001C86.3691 294.869 88.1979 290.483 93.6552 290.231C104.465 289.724 106.905 307.837 107.389 313.044C111.629 316.603 132.701 332.937 158.607 330.291C159.314 330.234 160.016 330.457 160.561 330.912C161.106 331.367 161.451 332.019 161.523 332.727C161.594 333.435 161.386 334.143 160.943 334.698C160.5 335.254 159.857 335.614 159.153 335.699C127.794 338.916 103.939 317.298 102.939 316.377C102.427 315.904 102.115 315.252 102.069 314.555C101.667 308.533 99.0321 295.392 93.8981 295.666C92.0067 295.752 91.2029 297.045 90.5902 300.989C90.3555 302.503 90.1345 303.933 88.6401 304.651C88.2181 304.851 87.7537 304.945 87.2873 304.925C86.8208 304.906 86.3663 304.772 85.9626 304.537C84.8476 303.892 83.7217 303.202 82.5972 302.514C75.5964 298.227 71.1189 295.837 67.9473 298.751C65.3435 301.145 67.1531 305.85 67.1722 305.896C67.3502 306.335 67.4107 306.813 67.3476 307.283C67.2846 307.753 67.1002 308.198 66.8127 308.574C66.5253 308.95 66.1447 309.244 65.7089 309.427C65.2731 309.611 64.7972 309.676 64.3282 309.618C64.1713 309.618 58.5652 309.362 55.0743 320.586C52.6738 328.302 56.428 331.084 62.752 334.986C64.7506 336.128 66.6326 337.464 68.3705 338.975C107.911 376.186 132.51 372.922 147.577 367.237C147.911 367.102 148.27 367.035 148.631 367.04C148.992 367.046 149.348 367.124 149.679 367.269C150.01 367.415 150.308 367.625 150.556 367.888C150.805 368.151 150.998 368.461 151.126 368.8C151.253 369.139 151.311 369.5 151.298 369.862C151.284 370.224 151.198 370.579 151.046 370.908C150.893 371.236 150.676 371.53 150.409 371.773C150.141 372.016 149.828 372.203 149.487 372.323C143.084 374.837 136.275 376.147 129.399 376.189Z" fill="black"/>
<path d="M251.543 283.112C251.177 283.161 250.806 283.061 250.513 282.836C250.219 282.61 250.027 282.277 249.978 281.909L244.701 241.977C244.653 241.609 244.752 241.237 244.976 240.943C245.201 240.649 245.533 240.456 245.899 240.407C247.803 240.153 249.739 240.279 251.595 240.776C253.451 241.273 255.191 242.131 256.716 243.303C258.241 244.475 259.521 245.936 260.482 247.604C261.444 249.272 262.07 251.113 262.322 253.023L264.122 266.64C264.374 268.55 264.249 270.491 263.754 272.353C263.258 274.214 262.402 275.959 261.234 277.489C260.066 279.019 258.609 280.303 256.947 281.267C255.284 282.232 253.448 282.859 251.543 283.112Z" fill="white"/>
<path d="M251.36 283.606C250.903 283.605 250.463 283.438 250.12 283.136C249.778 282.834 249.556 282.417 249.496 281.964L244.219 242.031C244.154 241.535 244.288 241.034 244.591 240.637C244.894 240.24 245.342 239.98 245.836 239.914C249.809 239.389 253.828 240.467 257.009 242.911C260.191 245.355 262.275 248.965 262.805 252.949L264.605 266.566C264.866 268.539 264.737 270.545 264.225 272.468C263.713 274.391 262.829 276.195 261.622 277.775C260.415 279.356 258.91 280.682 257.192 281.679C255.475 282.676 253.578 283.324 251.61 283.586C251.527 283.598 251.444 283.605 251.36 283.606ZM247.832 240.762C247.207 240.762 246.583 240.803 245.963 240.886C245.725 240.918 245.509 241.043 245.363 241.234C245.216 241.426 245.152 241.668 245.183 241.907L250.46 281.839C250.492 282.078 250.617 282.295 250.808 282.442C250.999 282.588 251.24 282.653 251.478 282.622C255.196 282.128 258.565 280.172 260.845 277.186C263.125 274.2 264.129 270.427 263.636 266.699L261.836 253.082C261.382 249.677 259.713 246.552 257.138 244.287C254.563 242.021 251.257 240.769 247.832 240.761V240.762Z" fill="black"/>
<g opacity="0.35">
<path opacity="0.35" d="M263.277 260.249L264.122 266.636C264.63 270.493 263.591 274.396 261.232 277.485C258.873 280.574 255.388 282.597 251.542 283.109C251.175 283.157 250.804 283.057 250.511 282.831C250.217 282.605 250.025 282.271 249.977 281.904L248.57 271.288C248.711 271.518 248.914 271.701 249.156 271.818C249.398 271.934 249.668 271.978 249.935 271.944L250.879 271.815C253.887 271.417 256.697 270.089 258.918 268.017C261.14 265.944 262.663 263.229 263.277 260.249Z" fill="black"/>
</g>
<path d="M251.352 285.837C250.359 285.835 249.4 285.471 248.653 284.813C247.907 284.156 247.423 283.249 247.292 282.261L242.015 242.328C241.873 241.246 242.165 240.151 242.826 239.285C243.488 238.418 244.466 237.85 245.544 237.706C250.101 237.105 254.71 238.342 258.359 241.145C262.009 243.948 264.4 248.089 265.009 252.659L266.809 266.276C267.109 268.539 266.961 270.84 266.374 273.047C265.787 275.254 264.772 277.322 263.388 279.136C262.003 280.949 260.276 282.47 258.305 283.614C256.334 284.757 254.158 285.5 251.901 285.799C251.719 285.824 251.536 285.837 251.352 285.837ZM247.569 242.994L252.482 280.166C255.329 279.459 257.816 277.725 259.467 275.294C261.119 272.864 261.819 269.908 261.435 266.992L259.635 253.375C259.235 250.465 257.787 247.802 255.564 245.889C253.342 243.977 250.498 242.947 247.569 242.994Z" fill="black"/>
<path d="M114.491 257.873C114.858 257.824 115.229 257.924 115.522 258.149C115.816 258.375 116.008 258.708 116.057 259.076L121.334 299.008C121.382 299.376 121.283 299.748 121.059 300.042C120.834 300.336 120.502 300.529 120.136 300.578C118.231 300.832 116.296 300.706 114.44 300.209C112.584 299.712 110.844 298.853 109.319 297.682C107.794 296.51 106.514 295.049 105.552 293.381C104.59 291.714 103.965 289.872 103.713 287.962L101.913 274.345C101.661 272.435 101.786 270.494 102.281 268.632C102.777 266.771 103.633 265.025 104.801 263.496C105.969 261.966 107.426 260.682 109.088 259.718C110.751 258.753 112.587 258.126 114.491 257.873Z" fill="white"/>
<path d="M118.203 301.194C114.542 301.187 111.007 299.849 108.254 297.428C105.501 295.006 103.717 291.666 103.231 288.026L101.431 274.409C100.909 270.425 101.984 266.395 104.421 263.204C106.857 260.013 110.456 257.922 114.427 257.39C114.672 257.357 114.921 257.373 115.159 257.437C115.398 257.501 115.622 257.611 115.818 257.762C116.014 257.912 116.179 258.1 116.302 258.315C116.426 258.529 116.506 258.766 116.538 259.012L121.817 298.943C121.85 299.188 121.834 299.438 121.77 299.677C121.706 299.917 121.596 300.141 121.446 300.338C121.296 300.535 121.109 300.7 120.895 300.824C120.681 300.948 120.445 301.029 120.2 301.061C119.538 301.15 118.871 301.194 118.203 301.194ZM114.677 258.35C114.636 258.35 114.596 258.353 114.555 258.359C110.84 258.857 107.473 260.813 105.193 263.798C102.914 266.784 101.908 270.554 102.396 274.282L104.196 287.899C104.694 291.626 106.645 295.002 109.621 297.288C112.597 299.575 116.355 300.584 120.071 300.095C120.31 300.063 120.526 299.938 120.673 299.746C120.819 299.554 120.883 299.312 120.852 299.073L115.575 259.142C115.546 258.923 115.439 258.722 115.274 258.577C115.109 258.431 114.897 258.351 114.677 258.35Z" fill="black"/>
<g opacity="0.35">
<path opacity="0.35" d="M119.874 287.931L121.336 299.008C121.384 299.377 121.285 299.749 121.06 300.044C120.834 300.338 120.501 300.531 120.134 300.58C118.23 300.833 116.295 300.708 114.44 300.211C112.584 299.714 110.845 298.856 109.32 297.685C107.795 296.513 106.516 295.052 105.554 293.384C104.592 291.717 103.968 289.876 103.716 287.966L102.957 282.228C104.444 284.621 106.587 286.534 109.13 287.738C111.673 288.941 114.507 289.385 117.294 289.015L118.748 288.822C118.998 288.788 119.234 288.687 119.432 288.53C119.63 288.374 119.783 288.167 119.874 287.931Z" fill="black"/>
</g>
<path d="M118.202 303.425C114.002 303.417 109.947 301.882 106.789 299.105C103.631 296.327 101.584 292.496 101.027 288.321L99.2271 274.704C98.6282 270.133 99.8614 265.51 102.656 261.85C105.451 258.19 109.579 255.791 114.135 255.18C114.669 255.109 115.213 255.144 115.734 255.284C116.255 255.423 116.743 255.664 117.171 255.993C117.599 256.322 117.958 256.733 118.228 257.201C118.498 257.669 118.673 258.186 118.744 258.723L124.021 298.651C124.092 299.187 124.057 299.732 123.918 300.254C123.779 300.776 123.539 301.266 123.211 301.696C122.883 302.125 122.474 302.485 122.008 302.756C121.541 303.027 121.026 303.202 120.492 303.273C119.733 303.375 118.967 303.425 118.202 303.425ZM113.552 260.814C110.707 261.524 108.222 263.259 106.571 265.689C104.92 268.119 104.218 271.074 104.6 273.989L106.4 287.606C106.784 290.523 108.228 293.194 110.454 295.109C112.68 297.025 115.533 298.049 118.465 297.986L113.552 260.814Z" fill="black"/>
<g opacity="0.35">
<path opacity="0.35" d="M236.735 326.374C225.468 339.19 205.41 350.146 187.061 351.268C176.184 351.946 165.309 349.92 155.4 345.37C152.423 343.996 149.549 342.406 146.803 340.614C142.471 337.783 138.483 334.456 134.919 330.699C139.414 332.005 144.034 332.831 148.702 333.163C155.362 310.127 169.25 289.898 196.424 288.199C213.391 287.127 222.652 305.787 236.735 326.374Z" fill="black"/>
</g>
<path d="M231.416 319.026C258.141 292.22 258.141 248.758 231.416 221.952C204.69 195.145 161.36 195.145 134.634 221.952C107.909 248.758 107.909 292.22 134.634 319.026C161.36 345.833 204.69 345.833 231.416 319.026Z" fill="white"/>
<path d="M182.981 339.621C169.529 339.613 156.374 335.656 145.137 328.24C133.9 320.823 125.072 310.271 119.742 297.883C114.412 285.495 112.812 271.814 115.14 258.525C117.468 245.236 123.622 232.921 132.843 223.098C142.064 213.275 153.949 206.373 167.034 203.243C180.119 200.113 193.83 200.892 206.479 205.483C219.128 210.075 230.16 218.279 238.217 229.083C246.273 239.888 251.002 252.821 251.819 266.288C252.37 275.35 251.136 284.432 248.187 293.015C245.238 301.598 240.633 309.515 234.633 316.312C228.634 323.11 221.359 328.656 213.222 332.633C205.086 336.611 196.248 338.941 187.214 339.492C185.797 339.578 184.382 339.621 182.981 339.621ZM183.117 202.329C181.714 202.329 180.307 202.372 178.896 202.457C161.124 203.555 144.496 211.619 132.6 224.907C120.704 238.196 114.495 255.643 115.313 273.484C116.131 291.324 123.91 308.127 136.972 320.264C150.033 332.401 167.329 338.9 185.126 338.358C202.923 337.815 219.794 330.275 232.097 317.364C244.399 304.454 251.147 287.208 250.883 269.351C250.619 251.494 243.365 234.457 230.687 221.917C218.008 209.378 200.922 202.342 183.117 202.329Z" fill="black"/>
<g opacity="0.35">
<path opacity="0.35" d="M250.104 256.873C251.964 266.101 251.912 275.615 249.951 284.822C247.99 294.029 244.161 302.733 238.703 310.392C233.245 318.052 226.275 324.504 218.226 329.346C210.176 334.189 201.219 337.319 191.912 338.542C182.606 339.764 173.147 339.054 164.126 336.454C155.105 333.854 146.713 329.421 139.472 323.429C132.232 317.438 126.297 310.017 122.038 301.627C117.779 293.237 115.286 284.058 114.714 274.661C114.647 273.573 114.606 272.482 114.592 271.406C117.973 288.168 127.469 303.061 141.222 313.169C154.976 323.277 171.995 327.872 188.949 326.054C205.902 324.235 221.568 316.136 232.88 303.34C244.192 290.544 250.335 273.973 250.105 256.873H250.104Z" fill="black"/>
</g>
<path d="M182.98 341.851C169.095 341.842 155.515 337.758 143.916 330.103C132.316 322.447 123.204 311.554 117.702 298.766C112.2 285.979 110.548 271.856 112.952 258.138C115.355 244.421 121.708 231.709 131.226 221.569C140.745 211.429 153.014 204.304 166.521 201.074C180.028 197.843 194.182 198.647 207.238 203.387C220.295 208.127 231.683 216.596 240 227.75C248.316 238.903 253.196 252.254 254.04 266.155C255.163 285.04 248.772 303.6 236.27 317.765C223.768 331.93 206.175 340.543 187.35 341.714C185.887 341.814 184.427 341.851 182.98 341.851ZM183.117 204.559C181.76 204.559 180.4 204.6 179.035 204.683C166.06 205.476 153.61 210.11 143.26 217.999C132.911 225.888 125.126 236.679 120.89 249.006C116.655 261.333 116.159 274.643 119.465 287.253C122.771 299.863 129.731 311.207 139.465 319.849C149.198 328.492 161.268 334.045 174.148 335.807C187.029 337.568 200.14 335.46 211.826 329.747C223.511 324.035 233.245 314.975 239.797 303.713C246.349 292.452 249.424 279.494 248.634 266.48C247.617 249.736 240.274 234.01 228.102 222.505C215.93 211.001 199.843 204.583 183.118 204.559H183.117Z" fill="black"/>
<path d="M251.223 268.091C252.198 281.073 249.044 294.032 242.216 305.104C237.243 313.241 215.42 328.483 187.228 330.89C161.087 333.121 136.227 320.948 130.084 313.659C121.664 303.751 116.593 291.42 115.598 278.439C112.911 242.995 142.156 225.986 179.61 223.129C217.064 220.273 248.536 232.648 251.223 268.091Z" fill="#111111"/>
<g opacity="0.5">
<path opacity="0.5" d="M237.547 265.865C238.237 259.192 234.888 253.377 230.067 252.875C225.246 252.374 220.778 257.376 220.088 264.049C219.398 270.722 222.747 276.538 227.568 277.039C232.389 277.541 236.857 272.538 237.547 265.865Z" fill="white"/>
</g>
<g opacity="0.5">
<path opacity="0.5" d="M224.55 290.916C225.286 287.926 223.808 284.99 221.25 284.356C218.692 283.723 216.022 285.633 215.286 288.622C214.551 291.612 216.028 294.549 218.587 295.182C221.145 295.815 223.815 293.905 224.55 290.916Z" fill="white"/>
</g>
<g opacity="0.35">
<path opacity="0.35" d="M235.525 236.032C244.417 243.334 250.14 253.854 251.219 268.089C252.192 281.072 249.039 294.031 242.212 305.105C237.238 313.242 215.412 328.483 187.215 330.893C177.686 331.624 168.103 330.727 158.874 328.239C193.464 324.536 220.039 305.845 226.206 295.753C234.873 281.702 238.875 265.256 237.638 248.78C237.33 244.474 236.622 240.206 235.525 236.032Z" fill="#111A28"/>
</g>
<path d="M118.41 250.24C117.982 250.24 117.561 250.125 117.192 249.907C116.822 249.689 116.518 249.376 116.309 249C116.1 248.625 115.995 248.2 116.005 247.77C116.015 247.341 116.138 246.921 116.363 246.555C127.113 227.82 149.757 215.819 178.503 213.626C207.037 211.449 231.189 219.532 244.795 235.801C245.201 236.237 245.432 236.808 245.443 237.405C245.453 238.002 245.244 238.581 244.854 239.032C244.464 239.483 243.922 239.773 243.331 239.847C242.741 239.92 242.144 239.772 241.656 239.431L241.397 239.257L241.173 238.983C228.592 223.862 205.884 216.366 178.867 218.43C151.71 220.503 130.435 231.646 120.507 249.004L120.337 249.262C120.115 249.564 119.824 249.81 119.49 249.98C119.155 250.15 118.785 250.239 118.41 250.24Z" fill="black"/>
<g opacity="0.5">
<path opacity="0.5" d="M132.423 298.36C132.423 298.36 118.827 264.23 136.558 248.863C154.289 233.497 181.32 231.49 180.822 233.278C180.822 233.278 151.449 242.827 141.54 267.448C133.9 286.433 132.423 298.36 132.423 298.36Z" fill="white"/>
</g>
<path d="M90.489 301.41L90.6254 308.91C90.6348 309.393 90.5221 309.87 90.2979 310.297L90.1969 310.486C89.87 310.919 89.5827 311.381 89.3385 311.865C89.0625 312.391 88.8205 312.935 88.6138 313.492C87.9904 315.15 87.7678 316.932 87.9643 318.693C88.0558 319.279 88.1963 319.856 88.3846 320.418C88.7834 321.591 89.3666 322.693 90.1123 323.681L90.1956 323.802C90.3866 324.081 90.4662 324.423 90.4187 324.759C90.3711 325.095 90.1997 325.4 89.9385 325.616C89.6774 325.831 89.3452 325.941 89.0075 325.923C88.6698 325.904 88.3513 325.76 88.1144 325.518C86.9771 324.432 86.0206 323.171 85.2813 321.781C84.9023 321.064 84.5859 320.315 84.3355 319.543C84.1096 318.757 83.9462 317.954 83.8469 317.142C83.6579 315.52 83.7192 313.878 84.0285 312.275C84.1809 311.478 84.3847 310.693 84.6386 309.923C84.7628 309.537 84.9114 309.152 85.0615 308.769C85.2289 308.348 85.4208 307.936 85.6361 307.537L85.2076 309.113L85.0712 301.369C85.0647 301.013 85.1284 300.658 85.2586 300.326C85.3888 299.994 85.5829 299.69 85.8298 299.434C86.3286 298.915 87.0125 298.616 87.7309 298.603C88.4494 298.59 89.1434 298.864 89.6607 299.364C90.1779 299.864 90.4759 300.55 90.489 301.271V301.41Z" fill="black"/>
<path d="M112.152 373.115C111.69 373.115 111.237 372.981 110.849 372.73C110.46 372.479 110.152 372.121 109.96 371.699C109.769 371.277 109.703 370.809 109.77 370.35C109.837 369.891 110.034 369.462 110.338 369.112C121.729 356.007 121.059 326.736 121.051 326.442C121.033 325.802 121.269 325.181 121.708 324.715C122.146 324.25 122.751 323.978 123.389 323.96C124.028 323.942 124.647 324.179 125.111 324.618C125.575 325.058 125.846 325.665 125.864 326.305C125.9 327.582 126.597 357.752 113.967 372.284C113.741 372.545 113.463 372.754 113.15 372.897C112.836 373.041 112.496 373.115 112.152 373.115Z" fill="black"/>
</svg>
