<svg width="41" height="47" viewBox="0 0 61 67" fill="none" xmlns="http://www.w3.org/2000/svg">
<path d="M30.5 59.0404C47.3436 59.0404 61 45.8238 61 29.5202C61 13.2166 47.3436 0 30.5 0C13.6564 0 0 13.2166 0 29.5202C0 36.9424 2.83269 43.732 7.51063 48.9192C7.14081 53.2038 5.92081 57.9017 4.57119 61.4273C4.27 62.2117 4.85331 63.0889 5.612 62.9539C14.213 61.3935 19.3256 58.9982 21.5483 57.7499C24.4683 58.6114 27.4779 59.0452 30.5 59.0404Z" fill="black"/>
<g filter="url(#filter0_d_68_518)">
<path d="M32.6867 34.2944C32.3251 33.5717 31.7227 33.5717 31.482 33.5717C31.2413 33.5717 30.639 33.6921 30.2773 34.2944L29.0727 38.3904H17.748C20.5191 44.4144 25.4587 50.4378 31.6023 50.4378C37.6263 50.4378 42.5653 44.4138 45.4566 38.3904H33.8913L32.6867 34.2944ZM35.9396 42.1253C36.1803 42.4869 36.1803 43.0892 35.6989 43.3299C34.2529 44.4143 32.8076 45.0166 31.4826 45.0166C30.1576 45.0166 28.7116 44.4143 27.2663 43.3299C26.9047 43.0892 26.7843 42.4869 27.0256 42.1253C27.2663 41.7636 27.8686 41.6433 28.2303 41.8846C29.3146 42.7276 30.5192 43.2096 31.3628 43.2096C32.3267 43.2096 33.4111 42.7276 34.6157 41.8846C35.096 41.6433 35.578 41.7636 35.9396 42.1253Z" fill="#3DF9D3"/>
</g>
<g filter="url(#filter1_d_68_518)">
<path d="M44.2547 19.9587C45.4593 19.9587 46.5436 20.4406 47.3872 21.1633C45.0982 14.4167 38.8336 9.83871 31.4846 9.83871C24.1356 9.83871 17.871 14.5371 15.582 21.2836C16.4251 20.4405 17.5094 20.0789 18.7146 20.0789H44.2552L44.2547 19.9587Z" fill="#3DF9D3"/>
</g>
<g filter="url(#filter2_d_68_518)">
<path d="M49.1937 27.4279V36.5838H35.2185L34.3754 33.8128C33.2911 31.1621 29.6771 31.1621 28.5927 33.8128L27.7497 36.5838H13.7744V27.5481C13.7744 26.9458 14.0151 26.3435 14.3768 25.9819L16.6657 23.0906C17.1477 22.4883 17.9908 22.0063 18.8343 22.0063H44.4957C45.3387 22.0063 46.0619 22.3679 46.6642 23.0906L48.9532 25.9819C49.0736 26.2231 49.1939 26.8255 49.1939 27.4279H49.1937Z" fill="#3DF9D3"/>
</g>
<defs>
<filter id="filter0_d_68_518" x="9.87708" y="33.5717" width="43.4509" height="32.608" filterUnits="userSpaceOnUse" color-interpolation-filters="sRGB">
<feFlood flood-opacity="0" result="BackgroundImageFix"/>
<feColorMatrix in="SourceAlpha" type="matrix" values="0 0 0 0 0 0 0 0 0 0 0 0 0 0 0 0 0 0 127 0" result="hardAlpha"/>
<feOffset dy="7.87097"/>
<feGaussianBlur stdDeviation="3.93548"/>
<feComposite in2="hardAlpha" operator="out"/>
<feColorMatrix type="matrix" values="0 0 0 0 0 0 0 0 0 0 0 0 0 0 0 0 0 0 0.25 0"/>
<feBlend mode="normal" in2="BackgroundImageFix" result="effect1_dropShadow_68_518"/>
<feBlend mode="normal" in="SourceGraphic" in2="effect1_dropShadow_68_518" result="shape"/>
</filter>
<filter id="filter1_d_68_518" x="7.71106" y="9.83871" width="47.5466" height="27.1868" filterUnits="userSpaceOnUse" color-interpolation-filters="sRGB">
<feFlood flood-opacity="0" result="BackgroundImageFix"/>
<feColorMatrix in="SourceAlpha" type="matrix" values="0 0 0 0 0 0 0 0 0 0 0 0 0 0 0 0 0 0 127 0" result="hardAlpha"/>
<feOffset dy="7.87097"/>
<feGaussianBlur stdDeviation="3.93548"/>
<feComposite in2="hardAlpha" operator="out"/>
<feColorMatrix type="matrix" values="0 0 0 0 0 0 0 0 0 0 0 0 0 0 0 0 0 0 0.25 0"/>
<feBlend mode="normal" in2="BackgroundImageFix" result="effect1_dropShadow_68_518"/>
<feBlend mode="normal" in="SourceGraphic" in2="effect1_dropShadow_68_518" result="shape"/>
</filter>
<filter id="filter2_d_68_518" x="5.90345" y="22.0063" width="51.1619" height="30.3194" filterUnits="userSpaceOnUse" color-interpolation-filters="sRGB">
<feFlood flood-opacity="0" result="BackgroundImageFix"/>
<feColorMatrix in="SourceAlpha" type="matrix" values="0 0 0 0 0 0 0 0 0 0 0 0 0 0 0 0 0 0 127 0" result="hardAlpha"/>
<feOffset dy="7.87097"/>
<feGaussianBlur stdDeviation="3.93548"/>
<feComposite in2="hardAlpha" operator="out"/>
<feColorMatrix type="matrix" values="0 0 0 0 0 0 0 0 0 0 0 0 0 0 0 0 0 0 0.25 0"/>
<feBlend mode="normal" in2="BackgroundImageFix" result="effect1_dropShadow_68_518"/>
<feBlend mode="normal" in="SourceGraphic" in2="effect1_dropShadow_68_518" result="shape"/>
</filter>
</defs>
</svg>
