<svg width="36" height="46" viewBox="0 0 46 56" fill="none" xmlns="http://www.w3.org/2000/svg">
<path d="M23.5282 17.8222C23.2647 17.2956 22.8257 17.2956 22.6503 17.2956C22.4749 17.2956 22.0359 17.3833 21.7724 17.8222L20.8945 20.8072H12.6416C14.661 25.1972 18.2608 29.5868 22.738 29.5868C27.128 29.5868 30.7273 25.1968 32.8344 20.8072H24.4061L23.5282 17.8222ZM25.8988 23.529C26.0742 23.7926 26.0742 24.2315 25.7234 24.4069C24.6696 25.1971 23.6164 25.6361 22.6507 25.6361C21.6851 25.6361 20.6313 25.1972 19.5781 24.4069C19.3145 24.2315 19.2268 23.7926 19.4027 23.529C19.5781 23.2655 20.017 23.1778 20.2806 23.3536C21.0708 23.968 21.9487 24.3192 22.5634 24.3192C23.2659 24.3192 24.0561 23.968 24.934 23.3536C25.284 23.1778 25.6353 23.2655 25.8988 23.529Z" fill="#3DF9D3"/>
<path d="M31.9579 7.37497C32.8358 7.37497 33.626 7.72621 34.2407 8.25289C32.5726 3.33621 28.0072 0 22.6516 0C17.296 0 12.7306 3.42396 11.0625 8.34053C11.6769 7.72615 12.4671 7.46261 13.3453 7.46261H31.9583L31.9579 7.37497Z" fill="#3DF9D3"/>
<path d="M45.2149 46.9709V55.0483C45.2149 55.3996 44.9513 55.7508 44.5124 55.7508L0.702497 55.7504C0.351254 55.7504 0 55.4869 0 55.0479V46.9705C0 38.7176 6.67242 32.0454 14.9251 32.0454C15.1005 32.0454 15.2763 32.1331 15.3641 32.2208C15.3641 32.2208 15.4518 32.3085 15.4518 32.3963L22.5632 46.4439L29.6747 32.3963C29.6747 32.3085 29.7624 32.3085 29.7624 32.2208C29.8501 32.0454 30.0259 31.9573 30.2014 32.0454C38.5423 32.0458 45.2155 38.7183 45.2155 46.9716L45.2149 46.9709Z" fill="#3DF9D3"/>
<path d="M35.5576 12.8182V19.4907H25.3731L24.7587 17.4713C23.9685 15.5396 21.3348 15.5396 20.5445 17.4713L19.9301 19.4907H9.74561V12.9059C9.74561 12.4669 9.92103 12.028 10.1846 11.7645L11.8527 9.65742C12.2039 9.21846 12.8183 8.86722 13.433 8.86722H32.1339C32.7483 8.86722 33.2753 9.13076 33.7143 9.65742L35.3824 11.7645C35.4701 11.9403 35.5578 12.3792 35.5578 12.8182H35.5576Z" fill="#3DF9D3"/>
</svg>
