<svg width="36" height="46" viewBox="0 0 114 123" fill="none" xmlns="http://www.w3.org/2000/svg">
<path d="M15.0056 90.9871L15.045 90.5307L14.7382 90.1905C6.21137 80.7355 1.05405 68.368 1.05405 54.8513C1.05405 25.172 25.9242 1.05405 56.6719 1.05405C87.4195 1.05405 112.29 25.172 112.29 54.8513C112.29 84.5305 87.4195 108.649 56.6719 108.649V109.703L56.6702 108.649C51.1571 108.657 45.666 107.866 40.3369 106.294L39.9103 106.168L39.5225 106.386C35.4937 108.648 26.1055 113.059 10.2419 115.937C10.025 115.975 9.78677 115.889 9.59554 115.606C9.39978 115.317 9.32832 114.905 9.47771 114.516L9.47809 114.515C12.015 107.887 14.3087 99.0617 15.0056 90.9871Z" fill="black" stroke="white" stroke-width="2.10811"/>
<g filter="url(#filter0_d_81_10)">
<path d="M60.735 63.7221C60.063 62.3793 58.9438 62.3793 58.4966 62.3793C58.0493 62.3793 56.9301 62.6029 56.2582 63.7221L54.0197 71.3329H32.9775C38.1264 82.526 47.3046 93.718 58.7201 93.718C69.9131 93.718 79.0903 82.5249 84.4626 71.3329H62.9732L60.735 63.7221ZM66.7792 78.2726C67.2265 78.9445 67.2265 80.0637 66.3319 80.511C63.6451 82.5258 60.9597 83.645 58.4976 83.645C56.0356 83.645 53.3488 82.5258 50.6633 80.511C49.9914 80.0637 49.7678 78.9445 50.2161 78.2726C50.6633 77.6007 51.7825 77.3771 52.4545 77.8253C54.4692 79.3918 56.7076 80.2874 58.275 80.2874C60.0661 80.2874 62.0809 79.3918 64.3192 77.8253C65.2117 77.3771 66.1073 77.6007 66.7792 78.2726V78.2726Z" fill="#3DF9D3"/>
</g>
<g filter="url(#filter1_d_81_10)">
<path d="M82.2296 37.0852C84.468 37.0852 86.4827 37.9807 88.0501 39.3236C83.797 26.7876 72.1567 18.2814 58.5016 18.2814C44.8465 18.2814 33.2063 27.0114 28.9531 39.547C30.5196 37.9806 32.5343 37.3086 34.7736 37.3086H82.2306L82.2296 37.0852Z" fill="#3DF9D3"/>
</g>
<g filter="url(#filter2_d_81_10)">
<path d="M91.4061 50.9635V67.976H65.4388L63.8724 62.8272C61.8576 57.9021 55.1424 57.9021 53.1275 62.8272L51.5611 67.976H25.5938V51.187C25.5938 50.0678 26.041 48.9485 26.713 48.2767L30.9661 42.9044C31.8616 41.7852 33.4281 40.8896 34.9955 40.8896H82.6767C84.2432 40.8896 85.587 41.5616 86.7061 42.9044L90.9593 48.2767C91.1829 48.725 91.4065 49.8442 91.4065 50.9635H91.4061Z" fill="#3DF9D3"/>
</g>
<defs>
<filter id="filter0_d_81_10" x="18.3525" y="62.3793" width="80.7354" height="60.5887" filterUnits="userSpaceOnUse" color-interpolation-filters="sRGB">
<feFlood flood-opacity="0" result="BackgroundImageFix"/>
<feColorMatrix in="SourceAlpha" type="matrix" values="0 0 0 0 0 0 0 0 0 0 0 0 0 0 0 0 0 0 127 0" result="hardAlpha"/>
<feOffset dy="14.625"/>
<feGaussianBlur stdDeviation="7.3125"/>
<feComposite in2="hardAlpha" operator="out"/>
<feColorMatrix type="matrix" values="0 0 0 0 0 0 0 0 0 0 0 0 0 0 0 0 0 0 0.25 0"/>
<feBlend mode="normal" in2="BackgroundImageFix" result="effect1_dropShadow_81_10"/>
<feBlend mode="normal" in="SourceGraphic" in2="effect1_dropShadow_81_10" result="shape"/>
</filter>
<filter id="filter1_d_81_10" x="14.3281" y="18.2814" width="88.3467" height="50.5156" filterUnits="userSpaceOnUse" color-interpolation-filters="sRGB">
<feFlood flood-opacity="0" result="BackgroundImageFix"/>
<feColorMatrix in="SourceAlpha" type="matrix" values="0 0 0 0 0 0 0 0 0 0 0 0 0 0 0 0 0 0 127 0" result="hardAlpha"/>
<feOffset dy="14.625"/>
<feGaussianBlur stdDeviation="7.3125"/>
<feComposite in2="hardAlpha" operator="out"/>
<feColorMatrix type="matrix" values="0 0 0 0 0 0 0 0 0 0 0 0 0 0 0 0 0 0 0.25 0"/>
<feBlend mode="normal" in2="BackgroundImageFix" result="effect1_dropShadow_81_10"/>
<feBlend mode="normal" in="SourceGraphic" in2="effect1_dropShadow_81_10" result="shape"/>
</filter>
<filter id="filter2_d_81_10" x="10.9687" y="40.8896" width="95.0625" height="56.3364" filterUnits="userSpaceOnUse" color-interpolation-filters="sRGB">
<feFlood flood-opacity="0" result="BackgroundImageFix"/>
<feColorMatrix in="SourceAlpha" type="matrix" values="0 0 0 0 0 0 0 0 0 0 0 0 0 0 0 0 0 0 127 0" result="hardAlpha"/>
<feOffset dy="14.625"/>
<feGaussianBlur stdDeviation="7.3125"/>
<feComposite in2="hardAlpha" operator="out"/>
<feColorMatrix type="matrix" values="0 0 0 0 0 0 0 0 0 0 0 0 0 0 0 0 0 0 0.25 0"/>
<feBlend mode="normal" in2="BackgroundImageFix" result="effect1_dropShadow_81_10"/>
<feBlend mode="normal" in="SourceGraphic" in2="effect1_dropShadow_81_10" result="shape"/>
</filter>
</defs>
</svg>
